<svg width="22" height="22" viewBox="0 0 22 22" fill="none" xmlns="http://www.w3.org/2000/svg">
<path opacity="0.4" d="M21.8801 11.8164C20.9804 9.79172 19.7987 5.29676 18.74 3.79199C17.9152 2.62062 16.8209 1.66468 15.5493 1.00474C14.2777 0.344804 12.8662 0.000209324 11.4336 0L8.25 0C3.69531 0 1.29884e-07 3.69531 1.29884e-07 8.25C-0.000205899 9.40897 0.244701 10.5549 0.718645 11.6125C1.19259 12.6702 1.88485 13.6156 2.75 14.3868V22H13.75V19.25H16.5C17.2293 19.25 17.9288 18.9603 18.4445 18.4445C18.9603 17.9288 19.25 17.2293 19.25 16.5V13.75H20.625C20.854 13.7498 21.0793 13.6924 21.2805 13.583C21.4817 13.4736 21.6523 13.3157 21.777 13.1236C21.9017 12.9316 21.9764 12.7114 21.9944 12.4831C22.0124 12.2548 21.9731 12.0257 21.8801 11.8164ZM13.75 9.28125C13.75 9.37242 13.7138 9.45985 13.6493 9.52432C13.5849 9.58878 13.4974 9.625 13.4062 9.625H11V12.0312C11 12.1224 10.9638 12.2099 10.8993 12.2743C10.8349 12.3388 10.7474 12.375 10.6562 12.375H8.59375C8.50258 12.375 8.41515 12.3388 8.35068 12.2743C8.28622 12.2099 8.25 12.1224 8.25 12.0312V9.625H5.84375C5.75258 9.625 5.66515 9.58878 5.60068 9.52432C5.53622 9.45985 5.5 9.37242 5.5 9.28125V7.21875C5.5 7.12758 5.53622 7.04015 5.60068 6.97568C5.66515 6.91122 5.75258 6.875 5.84375 6.875H8.25V4.46875C8.25 4.37758 8.28622 4.29015 8.35068 4.22568C8.41515 4.16122 8.50258 4.125 8.59375 4.125H10.6562C10.7474 4.125 10.8349 4.16122 10.8993 4.22568C10.9638 4.29015 11 4.37758 11 4.46875V6.875H13.4062C13.4974 6.875 13.5849 6.91122 13.6493 6.97568C13.7138 7.04015 13.75 7.12758 13.75 7.21875V9.28125Z" fill="black"/>
<path d="M13.75 9.28125C13.75 9.37242 13.7138 9.45985 13.6493 9.52432C13.5849 9.58878 13.4974 9.625 13.4062 9.625H11V12.0312C11 12.1224 10.9638 12.2099 10.8993 12.2743C10.8349 12.3388 10.7474 12.375 10.6562 12.375H8.59375C8.50258 12.375 8.41515 12.3388 8.35068 12.2743C8.28622 12.2099 8.25 12.1224 8.25 12.0312V9.625H5.84375C5.75258 9.625 5.66515 9.58878 5.60068 9.52432C5.53622 9.45985 5.5 9.37242 5.5 9.28125V7.21875C5.5 7.12758 5.53622 7.04015 5.60068 6.97568C5.66515 6.91122 5.75258 6.875 5.84375 6.875H8.25V4.46875C8.25 4.37758 8.28622 4.29015 8.35068 4.22568C8.41515 4.16122 8.50258 4.125 8.59375 4.125H10.6562C10.7474 4.125 10.8349 4.16122 10.8993 4.22568C10.9638 4.29015 11 4.37758 11 4.46875V6.875H13.4062C13.4974 6.875 13.5849 6.91122 13.6493 6.97568C13.7138 7.04015 13.75 7.12758 13.75 7.21875V9.28125Z" fill="black"/>
</svg>
