<svg width="42" height="42" viewBox="0 0 42 42" fill="none" xmlns="http://www.w3.org/2000/svg">
<path d="M7.875 13.125V21C7.875 21.6962 8.15156 22.3639 8.64384 22.8562C9.13613 23.3484 9.80381 23.625 10.5 23.625H19.6875V10.5H10.5C9.80381 10.5 9.13613 10.7766 8.64384 11.2688C8.15156 11.7611 7.875 12.4288 7.875 13.125V13.125ZM34.125 21V13.125C34.125 12.4288 33.8484 11.7611 33.3562 11.2688C32.8639 10.7766 32.1962 10.5 31.5 10.5H22.3125V23.625H31.5C32.1962 23.625 32.8639 23.3484 33.3562 22.8562C33.8484 22.3639 34.125 21.6962 34.125 21V21ZM5.25 39.375C5.25 40.0712 5.52656 40.7389 6.01884 41.2312C6.51113 41.7234 7.17881 42 7.875 42H10.5C11.1962 42 11.8639 41.7234 12.3562 41.2312C12.8484 40.7389 13.125 40.0712 13.125 39.375V36.75H5.25V39.375ZM28.875 36.75V39.375C28.875 40.0712 29.1516 40.7389 29.6438 41.2312C30.1361 41.7234 30.8038 42 31.5 42H34.125C34.8212 42 35.4889 41.7234 35.9812 41.2312C36.4734 40.7389 36.75 40.0712 36.75 39.375V36.75H28.875Z" fill="white"/>
<path d="M40.0313 10.5H39.375V6.5625C39.375 2.8875 31.2375 0 21 0C10.7625 0 2.625 2.8875 2.625 6.5625V10.5H1.96875C1.44661 10.5 0.945846 10.7074 0.576634 11.0766C0.207421 11.4458 0 11.9466 0 12.4688L0 19.0313C0 19.5534 0.207421 20.0542 0.576634 20.4234C0.945846 20.7926 1.44661 21 1.96875 21H2.625V34.125C2.625 34.8212 2.90156 35.4889 3.39384 35.9812C3.88613 36.4734 4.55381 36.75 5.25 36.75H36.75C37.4462 36.75 38.1139 36.4734 38.6062 35.9812C39.0984 35.4889 39.375 34.8212 39.375 34.125V21H40.0313C40.5534 21 41.0542 20.7926 41.4234 20.4234C41.7926 20.0542 42 19.5534 42 19.0313V12.4688C42 11.9466 41.7926 11.4458 41.4234 11.0766C41.0542 10.7074 40.5534 10.5 40.0313 10.5V10.5ZM9.1875 32.8125C8.66832 32.8125 8.16081 32.6585 7.72913 32.3701C7.29745 32.0817 6.961 31.6717 6.76232 31.192C6.56364 30.7124 6.51165 30.1846 6.61294 29.6754C6.71422 29.1662 6.96423 28.6985 7.33134 28.3313C7.69846 27.9642 8.16619 27.7142 8.67539 27.6129C9.18459 27.5117 9.71239 27.5636 10.192 27.7623C10.6717 27.961 11.0817 28.2974 11.3701 28.7291C11.6585 29.1608 11.8125 29.6683 11.8125 30.1875C11.8125 30.8837 11.5359 31.5514 11.0437 32.0437C10.5514 32.5359 9.88369 32.8125 9.1875 32.8125ZM19.6875 23.625H10.5C9.80381 23.625 9.13613 23.3484 8.64384 22.8562C8.15156 22.3639 7.875 21.6962 7.875 21V13.125C7.875 12.4288 8.15156 11.7611 8.64384 11.2688C9.13613 10.7766 9.80381 10.5 10.5 10.5H19.6875V23.625ZM13.7813 7.875C13.6072 7.875 13.4403 7.80586 13.3172 7.68279C13.1941 7.55972 13.125 7.3928 13.125 7.21875V5.90625C13.125 5.7322 13.1941 5.56528 13.3172 5.44221C13.4403 5.31914 13.6072 5.25 13.7813 5.25H28.2188C28.3928 5.25 28.5597 5.31914 28.6828 5.44221C28.8059 5.56528 28.875 5.7322 28.875 5.90625V7.21875C28.875 7.3928 28.8059 7.55972 28.6828 7.68279C28.5597 7.80586 28.3928 7.875 28.2188 7.875H13.7813ZM22.3125 10.5H31.5C32.1962 10.5 32.8639 10.7766 33.3562 11.2688C33.8484 11.7611 34.125 12.4288 34.125 13.125V21C34.125 21.6962 33.8484 22.3639 33.3562 22.8562C32.8639 23.3484 32.1962 23.625 31.5 23.625H22.3125V10.5ZM32.8125 32.8125C32.2933 32.8125 31.7858 32.6585 31.3541 32.3701C30.9224 32.0817 30.586 31.6717 30.3873 31.192C30.1886 30.7124 30.1367 30.1846 30.2379 29.6754C30.3392 29.1662 30.5892 28.6985 30.9563 28.3313C31.3235 27.9642 31.7912 27.7142 32.3004 27.6129C32.8096 27.5117 33.3374 27.5636 33.817 27.7623C34.2967 27.961 34.7067 28.2974 34.9951 28.7291C35.2835 29.1608 35.4375 29.6683 35.4375 30.1875C35.4375 30.8837 35.1609 31.5514 34.6687 32.0437C34.1764 32.5359 33.5087 32.8125 32.8125 32.8125Z" fill="#00C1FF"/>
</svg>
