<svg width="18" height="21" viewBox="0 0 18 21" fill="none" xmlns="http://www.w3.org/2000/svg">
<g clip-path="url(#clip0)">
<path d="M9.00409 5.78321C6.44874 5.78321 4.38758 7.88731 4.38758 10.4959C4.38758 13.1045 6.44874 15.2086 9.00409 15.2086C11.5594 15.2086 13.6206 13.1045 13.6206 10.4959C13.6206 7.88731 11.5594 5.78321 9.00409 5.78321ZM9.00409 13.5598C7.35276 13.5598 6.00276 12.1858 6.00276 10.4959C6.00276 8.80607 7.34874 7.43204 9.00409 7.43204C10.6594 7.43204 12.0054 8.80607 12.0054 10.4959C12.0054 12.1858 10.6554 13.5598 9.00409 13.5598ZM14.8862 5.59044C14.8862 6.20157 14.4041 6.68966 13.8094 6.68966C13.2108 6.68966 12.7327 6.19747 12.7327 5.59044C12.7327 4.98341 13.2148 4.49122 13.8094 4.49122C14.4041 4.49122 14.8862 4.98341 14.8862 5.59044ZM17.9438 6.70606C17.8755 5.2336 17.5461 3.9293 16.4894 2.85469C15.4367 1.78008 14.159 1.44376 12.7166 1.36993C11.23 1.2838 6.77419 1.2838 5.28758 1.36993C3.84919 1.43965 2.57151 1.77598 1.51481 2.85059C0.458119 3.9252 0.132673 5.2295 0.0603515 6.70196C-0.0240234 8.21954 -0.0240234 12.7682 0.0603515 14.2858C0.128655 15.7582 0.458119 17.0625 1.51481 18.1371C2.57151 19.2117 3.84517 19.5481 5.28758 19.6219C6.77419 19.708 11.23 19.708 12.7166 19.6219C14.159 19.5522 15.4367 19.2158 16.4894 18.1371C17.542 17.0625 17.8715 15.7582 17.9438 14.2858C18.0282 12.7682 18.0282 8.22364 17.9438 6.70606ZM16.0233 15.9141C15.7099 16.718 15.1032 17.3373 14.3117 17.6613C13.1264 18.1412 10.3139 18.0305 9.00409 18.0305C7.69427 18.0305 4.87776 18.1371 3.69651 17.6613C2.90901 17.3414 2.30231 16.7221 1.9849 15.9141C1.51481 14.7041 1.6233 11.833 1.6233 10.4959C1.6233 9.1588 1.51883 6.2836 1.9849 5.07774C2.2983 4.27384 2.90499 3.6545 3.69651 3.33048C4.88178 2.85059 7.69427 2.96134 9.00409 2.96134C10.3139 2.96134 13.1304 2.85469 14.3117 3.33048C15.0992 3.6504 15.7059 4.26973 16.0233 5.07774C16.4934 6.2877 16.3849 9.1588 16.3849 10.4959C16.3849 11.833 16.4934 14.7082 16.0233 15.9141Z" fill="#014C7F"/>
</g>
<defs>
<clipPath id="clip0">
<rect width="18" height="21" fill="white"/>
</clipPath>
</defs>
</svg>
