<svg width="18" height="20" viewBox="0 0 18 20" fill="none" xmlns="http://www.w3.org/2000/svg">
<g clip-path="url(#clip0)">
<path d="M8.76712 10C11.5342 10 13.7769 7.76172 13.7769 5C13.7769 2.23828 11.5342 0 8.76712 0C6 0 3.75734 2.23828 3.75734 5C3.75734 7.76172 6 10 8.76712 10ZM12.5166 11.2734L10.6458 18.75L9.39335 13.4375L10.6458 11.25H6.88845L8.1409 13.4375L6.88845 18.75L5.01761 11.2734C2.22701 11.4062 0 13.6836 0 16.5V18.125C0 19.1602 0.841487 20 1.87867 20H15.6556C16.6928 20 17.5342 19.1602 17.5342 18.125V16.5C17.5342 13.6836 15.3072 11.4062 12.5166 11.2734Z" fill="#026ABF"/>
</g>
<defs>
<clipPath id="clip0">
<rect width="17.5342" height="20" fill="white"/>
</clipPath>
</defs>
</svg>
