<svg width="52" height="41" viewBox="0 0 52 41" fill="none" xmlns="http://www.w3.org/2000/svg">
<g clip-path="url(#clip0)">
<path d="M51.7238 12.7805C51.9014 12.9612 52 13.2033 51.9985 13.4548C51.997 13.7063 51.8954 13.9472 51.7157 14.1258L40.2351 25.3528C40.145 25.4408 40.0382 25.5104 39.9208 25.5576C39.8034 25.6048 39.6777 25.6288 39.5509 25.628C39.4241 25.6273 39.2987 25.6019 39.1818 25.5533C39.065 25.5047 38.9591 25.4338 38.8701 25.3448L32.232 18.7543C32.1427 18.6656 32.072 18.5603 32.0241 18.4446C31.9762 18.3289 31.9519 18.205 31.9527 18.08C31.9534 17.955 31.9792 17.8314 32.0285 17.7163C32.0778 17.6011 32.1497 17.4967 32.2401 17.409L34.5232 15.1748C34.6133 15.0868 34.7201 15.0172 34.8375 14.97C34.9549 14.9228 35.0806 14.8988 35.2074 14.8996C35.3342 14.9003 35.4596 14.9257 35.5764 14.9743C35.6933 15.0229 35.7992 15.0938 35.8882 15.1828L39.5851 18.8504L48.1001 10.5223C48.1901 10.4343 48.2969 10.3647 48.4143 10.3175C48.5317 10.2702 48.6575 10.2463 48.7843 10.247C48.9111 10.2478 49.0365 10.2732 49.1533 10.3218C49.2702 10.3704 49.3761 10.4413 49.4651 10.5303L51.7238 12.7805Z" fill="#A1EAFB"/>
<path d="M18.2 20.4999C20.2569 20.4999 22.2677 19.8988 23.9779 18.7725C25.6882 17.6462 27.0212 16.0454 27.8083 14.1725C28.5955 12.2995 28.8015 10.2386 28.4002 8.25027C27.9989 6.26196 27.0084 4.43559 25.5539 3.0021C24.0994 1.56861 22.2463 0.592393 20.2289 0.196894C18.2115 -0.198604 16.1204 0.0043801 14.2201 0.780178C12.3197 1.55598 10.6955 2.86975 9.55272 4.55535C8.40995 6.24095 7.8 8.22269 7.8 10.2499C7.8 12.9684 8.89571 15.5755 10.8461 17.4978C12.7965 19.42 15.4417 20.4999 18.2 20.4999ZM25.48 23.0624H24.1231C22.266 23.9065 20.2451 24.3437 18.2 24.3437C16.1549 24.3437 14.134 23.9065 12.2769 23.0624H10.92C8.02403 23.0631 5.24686 24.1972 3.19911 26.2154C1.15135 28.2336 0.000646205 30.9707 0 33.8249L0 37.1562C0 38.1756 0.410892 39.1533 1.14228 39.8741C1.87368 40.595 2.86566 40.9999 3.9 40.9999H32.5C33.5343 40.9999 34.5263 40.595 35.2577 39.8741C35.9891 39.1533 36.4 38.1756 36.4 37.1562V33.8249C36.3994 30.9707 35.2486 28.2336 33.2009 26.2154C31.1531 24.1972 28.376 23.0631 25.48 23.0624Z" fill="white"/>
</g>
<defs>
<clipPath id="clip0">
<rect width="52" height="41" fill="white"/>
</clipPath>
</defs>
</svg>
