<svg width="20" height="17" viewBox="0 0 20 17" fill="none" xmlns="http://www.w3.org/2000/svg">
<g clip-path="url(#clip0)">
<path d="M4 11.5H1C0.447812 11.5 0 11.9478 0 12.5V15.5C0 16.0522 0.447812 16.5 1 16.5H4C4.55219 16.5 5 16.0522 5 15.5V12.5C5 11.9478 4.55219 11.5 4 11.5ZM3.25 9H9.25V10.5H10.75V9H16.75V10.5H18.25V8.70031C18.25 8.03875 17.7116 7.5 17.0497 7.5H10.75V5.5H12C12.5522 5.5 13 5.05219 13 4.5V1.5C13 0.947812 12.5522 0.5 12 0.5H8C7.44781 0.5 7 0.947812 7 1.5V4.5C7 5.05219 7.44781 5.5 8 5.5H9.25V7.5H2.95031C2.28844 7.5 1.75 8.03844 1.75 8.70031V10.5H3.25V9ZM11.5 11.5H8.5C7.94781 11.5 7.5 11.9478 7.5 12.5V15.5C7.5 16.0522 7.94781 16.5 8.5 16.5H11.5C12.0522 16.5 12.5 16.0522 12.5 15.5V12.5C12.5 11.9478 12.0522 11.5 11.5 11.5ZM19 11.5H16C15.4478 11.5 15 11.9478 15 12.5V15.5C15 16.0522 15.4478 16.5 16 16.5H19C19.5522 16.5 20 16.0522 20 15.5V12.5C20 11.9478 19.5522 11.5 19 11.5Z" fill="#026ABF"/>
</g>
<defs>
<clipPath id="clip0">
<rect width="20" height="16" fill="white" transform="translate(0 0.5)"/>
</clipPath>
</defs>
</svg>
