<svg width="20" height="20" viewBox="0 0 20 20" fill="none" xmlns="http://www.w3.org/2000/svg">
<path d="M19.0853 14.8801C18.8672 15.6653 18.2246 16.2838 17.4088 16.4936C15.93 16.875 10.0001 16.875 10.0001 16.875C10.0001 16.875 4.07019 16.875 2.59133 16.4936C1.77547 16.2837 1.1329 15.6653 0.914805 14.8801C0.518555 13.4567 0.518555 10.4871 0.518555 10.4871C0.518555 10.4871 0.518555 7.5175 0.914805 6.09418C1.1329 5.30892 1.77547 4.71625 2.59133 4.50637C4.07019 4.125 10.0001 4.125 10.0001 4.125C10.0001 4.125 15.9299 4.125 17.4088 4.50637C18.2246 4.71625 18.8672 5.30892 19.0853 6.09418C19.4816 7.5175 19.4816 10.4871 19.4816 10.4871C19.4816 10.4871 19.4816 13.4567 19.0853 14.8801ZM8.06064 7.79092V13.1833L13.0169 10.4871L8.06064 7.79092Z" fill="#014C7F"/>
</svg>
