<svg width="20" height="18" viewBox="0 0 20 18" fill="none" xmlns="http://www.w3.org/2000/svg">
<path d="M0 14.625V0.5625C0 0.413316 0.0585316 0.270242 0.162718 0.164752C0.266905 0.0592632 0.408213 0 0.555556 0L1.66667 0C1.81401 0 1.95532 0.0592632 2.0595 0.164752C2.16369 0.270242 2.22222 0.413316 2.22222 0.5625V3.375H8.88889V5.625H2.22222V13.5H8.88889V15.75H1.11111C0.816426 15.75 0.533811 15.6315 0.325437 15.4205C0.117063 15.2095 0 14.9234 0 14.625Z" fill="#026ABF"/>
<path d="M18.8889 11.25H15L13.8889 10.125H11.1111C10.8164 10.125 10.5338 10.2435 10.3254 10.4545C10.1171 10.6655 10 10.9516 10 11.25V16.875C10 17.1734 10.1171 17.4595 10.3254 17.6705C10.5338 17.8815 10.8164 18 11.1111 18H18.8889C19.1836 18 19.4662 17.8815 19.6746 17.6705C19.8829 17.4595 20 17.1734 20 16.875V12.375C20 12.0766 19.8829 11.7905 19.6746 11.5795C19.4662 11.3685 19.1836 11.25 18.8889 11.25ZM18.8889 1.125H15L13.8889 0H11.1111C10.8164 0 10.5338 0.118526 10.3254 0.329505C10.1171 0.540483 10 0.826631 10 1.125V6.75C10 7.04837 10.1171 7.33452 10.3254 7.5455C10.5338 7.75647 10.8164 7.875 11.1111 7.875H18.8889C19.1836 7.875 19.4662 7.75647 19.6746 7.5455C19.8829 7.33452 20 7.04837 20 6.75V2.25C20 1.95163 19.8829 1.66548 19.6746 1.4545C19.4662 1.24353 19.1836 1.125 18.8889 1.125Z" fill="#026ABF"/>
</svg>
