<svg width="20" height="16" viewBox="0 0 20 16" fill="none" xmlns="http://www.w3.org/2000/svg">
<path d="M15.1219 10.5844L10.4563 6.79688L9.51875 7.65625C8.25 8.81563 6.80625 8.02813 6.34062 7.51875C5.5 6.6 5.56563 5.17812 6.47813 4.34062L9.03438 2H6.41563C6.15 2 5.89687 2.10625 5.70937 2.29375L4 4H0.5C0.225 4 0 4.225 0 4.5V10.4969C0 10.7719 0.225 10.9969 0.5 10.9969H4.57188L7.4 13.5562C8.25625 14.2531 9.51562 14.1219 10.2125 13.2656L10.2188 13.2594L10.7781 13.7437C11.275 14.15 12.0094 14.0719 12.4125 13.575L13.3938 12.3687L13.5625 12.5063C13.9906 12.8531 14.6219 12.7906 14.9688 12.3594L15.2656 11.9937C15.6156 11.5625 15.55 10.9344 15.1219 10.5844ZM19.5 4H16L14.2937 2.29375C14.1062 2.10625 13.8531 2 13.5875 2H10.9031C10.6531 2 10.4125 2.09375 10.2281 2.2625L7.15625 5.075C7.15312 5.07812 7.15 5.08438 7.14687 5.0875C6.625 5.57812 6.6375 6.35625 7.08125 6.8375C7.38125 7.16563 8.175 7.5125 8.83438 6.92188C8.8375 6.91875 8.84375 6.91875 8.84688 6.91563L10.5031 5.4L11.3469 4.62813C11.55 4.44375 11.8656 4.45625 12.0531 4.65938C12.2406 4.8625 12.225 5.17812 12.0219 5.36562L11.2063 6.1125L15.7563 9.80625C16.1375 10.1156 16.3656 10.5406 16.45 10.9906H19.5C19.775 10.9906 20 10.7656 20 10.4906V4.49687C20 4.22187 19.775 4 19.5 4Z" fill="#026ABF"/>
</svg>
