<svg width="17" height="18" viewBox="0 0 17 18" fill="none" xmlns="http://www.w3.org/2000/svg">
<path d="M10.2273 10.25H16.3636V15.875C16.3636 16.875 15.6477 17.75 14.8295 17.75H1.53409C0.715909 17.75 0 16.875 0 15.875V10.25H6.13636V12.125C6.13636 12.2908 6.19024 12.4497 6.28614 12.5669C6.38204 12.6842 6.5121 12.75 6.64773 12.75H9.71591C9.85153 12.75 9.9816 12.6842 10.0775 12.5669C10.1734 12.4497 10.2273 12.2908 10.2273 12.125V10.25Z" fill="#026ABF"/>
<path d="M14.8295 4H12.2727V2.125C12.2727 1.125 11.5568 0.25 10.7386 0.25H5.625C4.80682 0.25 4.09091 1.125 4.09091 2.125V4H1.53409C0.715909 4 0 4.875 0 5.875V9H16.3636V5.875C16.3636 4.875 15.6477 4 14.8295 4ZM10.2273 4H6.13636V2.75H10.2273V4Z" fill="#026ABF"/>
</svg>
