<svg width="45" height="37" viewBox="0 0 45 37" fill="none" xmlns="http://www.w3.org/2000/svg">
<path d="M22.3921 6.43192e-05C29.518 0.0219772 34.6482 5.86706 34.6482 12.4409C34.6523 15.4529 33.5704 18.3628 31.6053 20.625C30.4513 21.9575 28.6462 24.7404 27.9582 27.0886C27.9582 27.1084 27.9533 27.1261 27.9505 27.1438H16.7569C16.7569 27.1261 16.752 27.1084 16.7492 27.0886C16.0611 24.7404 14.2561 21.9575 13.1021 20.625C11.137 18.3628 10.055 15.4529 10.0592 12.4409C10.0592 5.55816 15.584 -0.0218486 22.3921 6.43192e-05ZM22.3537 6.78599C23.8353 6.78768 25.2558 7.384 26.3034 8.44415C27.3511 9.50429 27.9404 10.9417 27.9421 12.4409C27.9421 12.7409 28.0598 13.0286 28.2694 13.2407C28.4791 13.4528 28.7633 13.5719 29.0598 13.5719C29.3562 13.5719 29.6405 13.4528 29.8501 13.2407C30.0597 13.0286 30.1775 12.7409 30.1775 12.4409C30.1752 10.3419 29.3502 8.32953 27.8835 6.84531C26.4167 5.36108 24.428 4.52626 22.3537 4.52402C22.0572 4.52402 21.773 4.64317 21.5634 4.85528C21.3537 5.06738 21.236 5.35505 21.236 5.655C21.236 5.95496 21.3537 6.24263 21.5634 6.45473C21.773 6.66683 22.0572 6.78599 22.3537 6.78599Z" fill="white"/>
<path d="M27.9378 32.1159C27.9369 32.5602 27.8067 32.9943 27.5634 33.3642L26.3689 35.1801C26.0036 35.7393 25.1695 36.1896 24.508 36.1896H20.1979C19.5364 36.1896 18.7023 35.7393 18.337 35.1801L17.1431 33.3642C16.9162 32.9865 16.7863 32.5574 16.7652 32.1159V29.4057H27.942L27.9378 32.1159ZM36.8835 13.5719C36.8835 13.122 37.0601 12.6905 37.3745 12.3723C37.689 12.0542 38.1154 11.8754 38.56 11.8754H43.0308C43.4754 11.8754 43.9018 12.0542 44.2162 12.3723C44.5306 12.6905 44.7073 13.122 44.7073 13.5719C44.7073 14.0218 44.5306 14.4534 44.2162 14.7715C43.9018 15.0897 43.4754 15.2684 43.0308 15.2684H38.56C38.1154 15.2684 37.689 15.0897 37.3745 14.7715C37.0601 14.4534 36.8835 14.0218 36.8835 13.5719ZM1.67651 11.8754H6.14724C6.59188 11.8754 7.01831 12.0542 7.33272 12.3723C7.64713 12.6905 7.82376 13.122 7.82376 13.5719C7.82376 14.0218 7.64713 14.4534 7.33272 14.7715C7.01831 15.0897 6.59188 15.2684 6.14724 15.2684H1.67651C1.23186 15.2684 0.805431 15.0897 0.491024 14.7715C0.176613 14.4534 -1.90735e-05 14.0218 -1.90735e-05 13.5719C-1.90735e-05 13.122 0.176613 12.6905 0.491024 12.3723C0.805431 12.0542 1.23186 11.8754 1.67651 11.8754ZM35.5507 3.90338L39.422 1.6414C39.6129 1.52515 39.8247 1.44853 40.0451 1.41604C40.2655 1.38354 40.4901 1.39582 40.7057 1.45214C40.9214 1.50847 41.1238 1.60772 41.3012 1.74409C41.4785 1.88047 41.6272 2.05123 41.7386 2.24642C41.85 2.4416 41.9218 2.65728 41.9499 2.88087C41.978 3.10446 41.9618 3.33147 41.9022 3.54865C41.8426 3.76582 41.7408 3.9688 41.6029 4.14574C41.4649 4.32267 41.2934 4.47001 41.0986 4.57914L37.2272 6.84112C37.0364 6.95737 36.8246 7.03398 36.6042 7.06648C36.3837 7.09897 36.1591 7.0867 35.9435 7.03037C35.7278 6.97405 35.5254 6.8748 35.348 6.73842C35.1707 6.60205 35.022 6.43128 34.9106 6.2361C34.7992 6.04092 34.7274 5.82524 34.6993 5.60165C34.6712 5.37806 34.6874 5.15104 34.747 4.93387C34.8066 4.7167 34.9084 4.51371 35.0464 4.33678C35.1843 4.15985 35.3558 4.01251 35.5507 3.90338ZM3.6087 22.5647L7.48007 20.3027C7.67089 20.1865 7.88269 20.1098 8.10311 20.0773C8.32352 20.0448 8.54811 20.0571 8.76378 20.1134C8.97945 20.1698 9.18187 20.269 9.35921 20.4054C9.53655 20.5418 9.68526 20.7125 9.79664 20.9077C9.90803 21.1029 9.97987 21.3186 10.008 21.5422C10.036 21.7658 10.0198 21.9928 9.96023 22.21C9.90064 22.4271 9.79888 22.6301 9.6609 22.807C9.52292 22.984 9.35148 23.1313 9.15659 23.2404L5.28522 25.5024C4.90081 25.7177 4.44826 25.7717 4.02493 25.6527C3.6016 25.5338 3.24132 25.2515 3.02161 24.8665C2.8019 24.4815 2.74032 24.0246 2.85011 23.5941C2.95991 23.1636 3.2323 22.794 3.6087 22.5647ZM37.2272 20.3027L41.0986 22.5647C41.2934 22.6738 41.4649 22.8212 41.6029 22.9981C41.7408 23.175 41.8426 23.378 41.9022 23.5952C41.9618 23.8123 41.978 24.0394 41.9499 24.2629C41.9218 24.4865 41.85 24.7022 41.7386 24.8974C41.6272 25.0926 41.4785 25.2634 41.3012 25.3997C41.1238 25.5361 40.9214 25.6354 40.7057 25.6917C40.4901 25.748 40.2655 25.7603 40.0451 25.7278C39.8247 25.6953 39.6129 25.6187 39.422 25.5024L35.5507 23.2404C35.1743 23.0111 34.9019 22.6415 34.7921 22.211C34.6823 21.7805 34.7439 21.3237 34.9636 20.9387C35.1833 20.5537 35.5436 20.2713 35.9669 20.1524C36.3902 20.0335 36.8428 20.0874 37.2272 20.3027ZM8.31694 7.06873C8.02253 7.0693 7.73325 6.99075 7.47867 6.84112L3.6073 4.57914C3.23091 4.34983 2.95851 3.98018 2.84872 3.54971C2.73892 3.11924 2.8005 2.66235 3.02021 2.27736C3.23992 1.89237 3.6002 1.61003 4.02353 1.4911C4.44686 1.37216 4.89942 1.42613 5.28382 1.6414L9.1552 3.90338C9.47465 4.09018 9.72429 4.37839 9.86542 4.72335C10.0065 5.06831 10.0313 5.45075 9.93576 5.81137C9.84026 6.172 9.62986 6.49067 9.33718 6.718C9.04451 6.94532 8.68589 7.0686 8.31694 7.06873Z" fill="#00C1FF"/>
</svg>
