<svg width="20" height="13" viewBox="0 0 20 13" fill="none" xmlns="http://www.w3.org/2000/svg">
<path d="M19.448 3.26357L10.7311 0.565455C10.2561 0.418428 9.7436 0.418428 9.26891 0.565455L0.551719 3.26357C-0.183906 3.49119 -0.183906 4.47126 0.551719 4.69888L2.07141 5.16924C1.73797 5.58451 1.53297 6.09107 1.51266 6.64581C1.21172 6.81959 0.999844 7.13317 0.999844 7.5075C0.999844 7.84689 1.17734 8.13244 1.43297 8.31505L0.635156 11.9318C0.565781 12.2464 0.803281 12.5448 1.12297 12.5448H2.87641C3.19641 12.5448 3.43391 12.2464 3.36453 11.9318L2.56672 8.31505C2.82234 8.13244 2.99984 7.84689 2.99984 7.5075C2.99984 7.14324 2.79766 6.83848 2.51047 6.66155C2.53422 6.18867 2.77422 5.77057 3.15703 5.50548L9.2686 7.39731C9.55172 7.48483 10.0948 7.59408 10.7308 7.39731L19.448 4.6992C20.1839 4.47126 20.1839 3.4915 19.448 3.26357ZM11.0245 8.36038C10.133 8.63617 9.37328 8.4838 8.97485 8.36038L4.44297 6.9578L3.99984 10.5299C3.99984 11.6428 6.68609 12.5448 9.99985 12.5448C13.3136 12.5448 15.9998 11.6428 15.9998 10.5299L15.5567 6.95749L11.0245 8.36038Z" fill="#026ABF"/>
</svg>
