<svg width="15" height="20" viewBox="0 0 15 20" fill="none" xmlns="http://www.w3.org/2000/svg">
<g clip-path="url(#clip0)">
<path d="M3.79371 14.1652C3.45426 13.8257 3.63121 13.9214 2.81246 13.7023C2.44097 13.6027 2.11441 13.4113 1.8191 13.182L0.0468302 17.5273C-0.124654 17.948 0.195659 18.405 0.649566 18.3878L2.70777 18.3093L4.1234 19.8046C4.4359 20.1343 4.98434 20.0316 5.15582 19.6109L7.18903 14.6257C6.76559 14.8616 6.29567 14.9999 5.80973 14.9999C5.04801 14.9999 4.33238 14.7034 3.79371 14.1652ZM14.9531 17.5273L13.1808 13.182C12.8855 13.4116 12.559 13.6027 12.1875 13.7023C11.3644 13.9226 11.5449 13.8265 11.2062 14.1652C10.6676 14.7034 9.95153 14.9999 9.18981 14.9999C8.70387 14.9999 8.23395 14.8613 7.81051 14.6257L9.84372 19.6109C10.0152 20.0316 10.564 20.1343 10.8761 19.8046L12.2922 18.3093L14.3504 18.3878C14.8043 18.405 15.1246 17.9476 14.9531 17.5273ZM10.2734 13.2812C10.8703 12.6738 10.9386 12.7261 11.7886 12.4945C12.3312 12.3464 12.7554 11.9148 12.9008 11.3624C13.1929 10.2531 13.1172 10.387 13.9144 9.57532C14.3117 9.17102 14.4668 8.58157 14.3215 8.02923C14.0297 6.92063 14.0293 7.07532 14.3215 5.96556C14.4668 5.41321 14.3117 4.82376 13.9144 4.41946C13.1172 3.60774 13.1929 3.74134 12.9008 2.63235C12.7554 2.08001 12.3312 1.64837 11.7886 1.50032C10.6996 1.20306 10.8308 1.28079 10.0328 0.468683C9.63552 0.0643866 9.05622 -0.0938165 8.51364 0.0542304C7.42497 0.351105 7.57692 0.351496 6.48629 0.0542304C5.94371 -0.0938165 5.36442 0.063996 4.96715 0.468683C4.16988 1.2804 4.30113 1.20306 3.21168 1.50032C2.6691 1.64837 2.24488 2.08001 2.09957 2.63235C1.80777 3.74134 1.88316 3.60774 1.08589 4.41946C0.688628 4.82376 0.533159 5.41321 0.678862 5.96556C0.97066 7.07337 0.97105 6.91868 0.678862 8.02884C0.53355 8.58118 0.688628 9.17063 1.08589 9.57532C1.88316 10.387 1.80738 10.2531 2.09957 11.3624C2.24488 11.9148 2.6691 12.3464 3.21168 12.4945C4.0859 12.7327 4.15113 12.6952 4.72653 13.2812C5.24332 13.8074 6.0484 13.9015 6.6695 13.5085C6.91786 13.3508 7.20597 13.2671 7.50016 13.2671C7.79435 13.2671 8.08246 13.3508 8.33083 13.5085C8.95153 13.9015 9.75661 13.8074 10.2734 13.2812ZM3.81481 6.87337C3.81481 4.80189 5.46481 3.12259 7.49997 3.12259C9.53513 3.12259 11.1851 4.80189 11.1851 6.87337C11.1851 8.94485 9.53513 10.6241 7.49997 10.6241C5.46481 10.6241 3.81481 8.94485 3.81481 6.87337Z" fill="#026ABF"/>
</g>
<defs>
<clipPath id="clip0">
<rect width="15" height="20" fill="white"/>
</clipPath>
</defs>
</svg>
