<svg width="40" height="40" viewBox="0 0 40 40" fill="none" xmlns="http://www.w3.org/2000/svg">
<g clip-path="url(#clip0)">
<path d="M0.0117859 14.4078C-0.169464 19.0789 1.79694 23.2859 5.00007 26.1617V40H17.5001V24.7273L0.286786 12.207C0.138045 12.9324 0.0460998 13.6682 0.0117859 14.4078ZM39.7829 21.4844C38.1422 17.8023 35.9938 9.62891 34.0704 6.89453C32.5706 4.76582 30.5815 3.02846 28.2704 1.82866C25.9593 0.628865 23.3939 0.00172036 20.7899 0L15.6251 0C9.14069 0 3.31882 3.95078 1.03522 9.66016L18.6883 22.5H39.9813C39.9883 22.1512 39.9206 21.8049 39.7829 21.4844ZM25.0001 17.5C24.5056 17.5 24.0223 17.3534 23.6111 17.0787C23.2 16.804 22.8796 16.4135 22.6904 15.9567C22.5011 15.4999 22.4516 14.9972 22.5481 14.5123C22.6446 14.0273 22.8827 13.5819 23.2323 13.2322C23.5819 12.8826 24.0274 12.6445 24.5123 12.548C24.9973 12.4516 25.5 12.5011 25.9568 12.6903C26.4136 12.8795 26.804 13.2 27.0787 13.6111C27.3534 14.0222 27.5001 14.5055 27.5001 15C27.4986 15.6626 27.2348 16.2976 26.7662 16.7662C26.2977 17.2347 25.6627 17.4986 25.0001 17.5Z" fill="#A1EAFB"/>
<path d="M25 17.5C25.4945 17.5 25.9778 17.3534 26.3889 17.0787C26.8 16.804 27.1205 16.4135 27.3097 15.9567C27.4989 15.4999 27.5484 14.9972 27.452 14.5123C27.3555 14.0273 27.1174 13.5819 26.7678 13.2322C26.4181 12.8826 25.9727 12.6445 25.4877 12.548C25.0028 12.4516 24.5001 12.5011 24.0433 12.6903C23.5865 12.8795 23.196 13.2 22.9213 13.6111C22.6466 14.0222 22.5 14.5056 22.5 15C22.5012 15.6627 22.765 16.2978 23.2336 16.7664C23.7022 17.235 24.3373 17.4988 25 17.5ZM26.25 28.75H38.75L40 25H20V40H31.3969C32.4462 40 33.4689 39.6697 34.3201 39.0562C35.1714 38.4426 35.808 37.5767 36.1398 36.5813L36.25 36.25H26.25C25.9185 36.25 25.6005 36.1183 25.3661 35.8839C25.1317 35.6495 25 35.3316 25 35C25 34.6685 25.1317 34.3506 25.3661 34.1161C25.6005 33.8817 25.9185 33.75 26.25 33.75H37.0836L37.9172 31.25H26.25C25.9185 31.25 25.6005 31.1183 25.3661 30.8839C25.1317 30.6495 25 30.3315 25 30C25 29.6685 25.1317 29.3506 25.3661 29.1161C25.6005 28.8817 25.9185 28.75 26.25 28.75Z" fill="white"/>
<circle cx="25" cy="15" r="3" fill="#014C7F"/>
</g>
<defs>
<clipPath id="clip0">
<rect width="40" height="40" fill="white"/>
</clipPath>
</defs>
</svg>
