<svg width="20" height="20" viewBox="0 0 20 20" fill="none" xmlns="http://www.w3.org/2000/svg">
<path fill-rule="evenodd" clip-rule="evenodd" d="M11.25 0H8.75L7.80822 2.82533C7.34378 2.96703 6.89847 3.15259 6.47712 3.37719L3.81271 2.04499L2.04494 3.81275L3.37716 6.47718C3.15258 6.89852 2.96702 7.34381 2.82533 7.80822L0 8.75V11.25L2.82533 12.1918C2.96705 12.6563 3.15265 13.1017 3.37729 13.5231L2.0452 16.1872L3.81297 17.955L6.47723 16.6229C6.89855 16.8474 7.34382 17.033 7.80822 17.1747L8.75 20H11.25L12.1918 17.1747C12.6562 17.033 13.1015 16.8474 13.5229 16.6228L16.1872 17.9549L17.9549 16.1872L16.6228 13.5229C16.8474 13.1015 17.033 12.6562 17.1747 12.1918L20 11.25V8.75L17.1747 7.80822C17.033 7.3438 16.8474 6.8985 16.6228 6.47717L17.955 3.81284L16.1872 2.04508L13.5229 3.37722C13.1016 3.15261 12.6562 2.96704 12.1918 2.82533L11.25 0ZM10.6542 13.375V13C11.6748 12.9953 12.5054 12.2477 12.5 11.3266C12.5 10.5859 11.9517 9.925 11.1645 9.71875L9.21009 9.20547C8.9685 9.13984 8.7975 8.92188 8.7975 8.67344C8.7975 8.37109 9.04722 8.125 9.35395 8.125H10.5754C10.7654 8.12446 10.952 8.16819 11.1156 8.25156C11.2893 8.34062 11.5038 8.33359 11.6504 8.21406L11.9761 7.94922C12.1851 7.78281 12.1498 7.49688 11.9137 7.35859C11.5403 7.14143 11.104 7.01884 10.6542 7.00469V6.625C10.6542 6.52554 10.6084 6.43016 10.527 6.35984C10.4455 6.28951 10.335 6.25 10.2199 6.25H9.78555C9.67036 6.25 9.55989 6.28951 9.47845 6.35984C9.397 6.43016 9.35124 6.52554 9.35124 6.625V7C8.33061 7.00234 7.5 7.75234 7.5 8.67344C7.5 9.41406 8.04831 10.075 8.8355 10.2812L10.7953 10.7945C11.0369 10.8602 11.2079 11.0781 11.2079 11.3266C11.2079 11.6289 10.9582 11.875 10.6514 11.875H9.42996C9.23999 11.8755 9.05338 11.8318 8.88979 11.7484C8.71606 11.6594 8.50162 11.6664 8.35504 11.7859L8.02931 12.0508C7.8203 12.2172 7.85559 12.5031 8.09175 12.6414C8.46509 12.8586 8.90138 12.9812 9.35124 12.9953V13.375C9.35124 13.4745 9.397 13.5698 9.47845 13.6402C9.55989 13.7105 9.67036 13.75 9.78555 13.75H10.2199C10.335 13.75 10.4455 13.7105 10.527 13.6402C10.6084 13.5698 10.6542 13.4745 10.6542 13.375Z" fill="#026ABF"/>
</svg>
