<svg width="20" height="16" viewBox="0 0 20 16" fill="none" xmlns="http://www.w3.org/2000/svg">
<g clip-path="url(#clip0)">
<path d="M3.60564 4.27806L6.79658 5.43993C7.89627 2.89181 9.49065 0.930871 11.1403 0.0118087C8.14409 -0.141004 5.24095 1.16681 3.37376 3.50556C3.1647 3.76806 3.29063 4.16337 3.60564 4.27806ZM7.73846 5.78306L15.191 8.4965C16.3085 4.70337 15.7754 1.25712 13.8588 0.559621C13.6275 0.475246 13.386 0.434621 13.1372 0.434621C11.3241 0.434934 9.12878 2.59618 7.73846 5.78306ZM16.2963 1.89056C16.4907 2.39993 16.6347 2.97181 16.7088 3.61525C16.8882 5.17431 16.6644 6.99743 16.1166 8.83337L19.3235 10.0009C19.6388 10.1156 19.9894 9.89368 19.9976 9.55806C20.0701 6.56775 18.6879 3.70056 16.2963 1.89056ZM17.5001 13.9993H10.0332L12.0625 8.42181L10.1832 7.73743L7.90502 13.999H0.500001C0.223751 13.999 0 14.2227 0 14.4993V15.4996C0 15.7759 0.223751 15.9999 0.500001 15.9999H17.5001C17.7763 15.9999 18.0001 15.7759 18.0001 15.4996V14.4993C18.0001 14.2231 17.7763 13.9993 17.5001 13.9993Z" fill="#026ABF"/>
</g>
<defs>
<clipPath id="clip0">
<rect width="20" height="16" fill="white"/>
</clipPath>
</defs>
</svg>
