<svg width="20" height="20" viewBox="0 0 20 20" fill="none" xmlns="http://www.w3.org/2000/svg">
<g clip-path="url(#clip0)">
<path d="M19.891 10.7422C19.073 8.90156 17.9988 4.81523 17.0363 3.44727C16.2867 2.38224 15.2919 1.5131 14.1359 0.913137C12.9799 0.313178 11.6966 -4.67984e-06 10.3941 0L7.5 0C3.35938 0 1.18076e-07 3.35938 1.18076e-07 7.5C-0.000187181 8.55361 0.222456 9.59535 0.653314 10.5568C1.08417 11.5183 1.7135 12.3778 2.5 13.0789V20H12.5V17.5H15C15.663 17.5 16.2989 17.2366 16.7678 16.7678C17.2366 16.2989 17.5 15.663 17.5 15V12.5H18.75C18.9582 12.4998 19.163 12.4476 19.3459 12.3482C19.5288 12.2487 19.684 12.1052 19.7973 11.9306C19.9106 11.756 19.9786 11.5558 19.9949 11.3483C20.0113 11.1407 19.9756 10.9324 19.891 10.7422ZM12.5 8.4375C12.5 8.52038 12.4671 8.59987 12.4085 8.65847C12.3499 8.71708 12.2704 8.75 12.1875 8.75H10V10.9375C10 11.0204 9.96708 11.0999 9.90847 11.1585C9.84987 11.2171 9.77038 11.25 9.6875 11.25H7.8125C7.72962 11.25 7.65013 11.2171 7.59153 11.1585C7.53292 11.0999 7.5 11.0204 7.5 10.9375V8.75H5.3125C5.22962 8.75 5.15013 8.71708 5.09153 8.65847C5.03292 8.59987 5 8.52038 5 8.4375V6.5625C5 6.47962 5.03292 6.40013 5.09153 6.34153C5.15013 6.28292 5.22962 6.25 5.3125 6.25H7.5V4.0625C7.5 3.97962 7.53292 3.90013 7.59153 3.84153C7.65013 3.78292 7.72962 3.75 7.8125 3.75H9.6875C9.77038 3.75 9.84987 3.78292 9.90847 3.84153C9.96708 3.90013 10 3.97962 10 4.0625V6.25H12.1875C12.2704 6.25 12.3499 6.28292 12.4085 6.34153C12.4671 6.40013 12.5 6.47962 12.5 6.5625V8.4375Z" fill="#026ABF"/>
</g>
<defs>
<clipPath id="clip0">
<rect width="20" height="20" fill="white"/>
</clipPath>
</defs>
</svg>
