<svg width="20" height="20" viewBox="0 0 20 20" fill="none" xmlns="http://www.w3.org/2000/svg">
<g clip-path="url(#clip0)">
<path d="M19.7281 17.2914L15.8332 13.3973C15.6574 13.2215 15.4191 13.1238 15.1691 13.1238H14.5324C15.6105 11.7449 16.2512 10.0109 16.2512 8.12422C16.2512 3.63633 12.6141 0 8.12578 0C3.6375 0 0 3.63633 0 8.12422C0 12.6121 3.63711 16.2484 8.12578 16.2484C10.0125 16.2484 11.7473 15.6078 13.1262 14.5297V15.1664C13.1262 15.4164 13.2238 15.6547 13.3996 15.8305L17.2945 19.7246C17.6617 20.0918 18.2555 20.0918 18.6188 19.7246L19.7242 18.6191C20.0914 18.252 20.0914 17.6586 19.7281 17.2914ZM8.12578 13.7484C5.01875 13.7484 2.50078 11.2352 2.50078 8.12422C2.50078 5.01758 5.01445 2.5 8.12578 2.5C11.2328 2.5 13.7508 5.01328 13.7508 8.12422C13.7508 11.2309 11.2371 13.7484 8.12578 13.7484ZM9.18477 7.78984L7.42656 7.2625C7.225 7.20195 7.08398 6.99766 7.08398 6.76523C7.08398 6.48125 7.29102 6.25 7.54492 6.25H8.64297C8.82109 6.25 8.99297 6.30039 9.14375 6.39531C9.27031 6.47461 9.43125 6.46992 9.53945 6.3668L9.99844 5.92891C10.1363 5.79727 10.1285 5.56914 9.97617 5.45469C9.6207 5.18789 9.1918 5.03398 8.75078 5.01133V4.375C8.75078 4.20234 8.61094 4.0625 8.43828 4.0625H7.81328C7.64062 4.0625 7.50078 4.20234 7.50078 4.375V5.00469C6.57773 5.0293 5.83359 5.80742 5.83359 6.76523C5.83359 7.54531 6.34102 8.24219 7.06719 8.46016L8.82539 8.9875C9.02695 9.04805 9.16797 9.25234 9.16797 9.48477C9.16797 9.76875 8.96094 10 8.70703 10H7.60938C7.43125 10 7.25937 9.94961 7.10859 9.85469C6.98203 9.77539 6.82109 9.78008 6.71289 9.8832L6.25391 10.3211C6.11602 10.4527 6.12383 10.6809 6.27617 10.7953C6.63164 11.0621 7.06055 11.216 7.50156 11.2387V11.875C7.50156 12.0477 7.64141 12.1875 7.81406 12.1875H8.43906C8.61172 12.1875 8.75156 12.0477 8.75156 11.875V11.2453C9.67461 11.2207 10.4187 10.443 10.4187 9.48477C10.4187 8.70469 9.91133 8.00781 9.18477 7.78984Z" fill="#026ABF"/>
</g>
<defs>
<clipPath id="clip0">
<rect width="20" height="20" fill="white"/>
</clipPath>
</defs>
</svg>
