<svg width="39" height="39" viewBox="0 0 39 39" fill="none" xmlns="http://www.w3.org/2000/svg">
<g clip-path="url(#clip0)">
<path d="M35.1373 21.9374C35.8639 21.9374 36.4619 22.5765 36.3606 23.2963C35.0794 32.3669 27.1605 39.3046 17.6665 38.99C8.21965 38.68 0.319867 30.781 0.0098478 21.3334C-0.301695 11.8393 6.6368 3.92051 15.7013 2.6393C16.4234 2.53799 17.0624 3.13518 17.0624 3.86262V21.9374H35.1373Z" fill="white"/>
<path d="M39 17.0014C39.0472 17.6953 38.4668 18.2811 37.7668 18.2811H20.7188V1.23689C20.7188 0.540683 21.3037 -0.0450791 21.9984 -0.000137654C31.0979 0.630565 38.3693 7.90193 39 17.0014Z" fill="#00C1FF"/>
</g>
<defs>
<clipPath id="clip0">
<rect width="39" height="39" fill="white"/>
</clipPath>
</defs>
</svg>
