<svg width="18" height="20" viewBox="0 0 18 20" fill="none" xmlns="http://www.w3.org/2000/svg">
<g clip-path="url(#clip0)">
<path d="M17.0312 6.25H0.46875C0.210938 6.25 0 6.03906 0 5.78125V4.375C0 3.33984 0.839844 2.5 1.875 2.5H3.75V0.46875C3.75 0.210938 3.96094 0 4.21875 0H5.78125C6.03906 0 6.25 0.210938 6.25 0.46875V2.5H11.25V0.46875C11.25 0.210938 11.4609 0 11.7188 0H13.2812C13.5391 0 13.75 0.210938 13.75 0.46875V2.5H15.625C16.6602 2.5 17.5 3.33984 17.5 4.375V5.78125C17.5 6.03906 17.2891 6.25 17.0312 6.25ZM0.46875 7.5H17.0312C17.2891 7.5 17.5 7.71094 17.5 7.96875V18.125C17.5 19.1602 16.6602 20 15.625 20H1.875C0.839844 20 0 19.1602 0 18.125V7.96875C0 7.71094 0.210938 7.5 0.46875 7.5ZM12.3438 15C12.6016 15 12.8125 14.7891 12.8125 14.5312V12.9688C12.8125 12.7109 12.6016 12.5 12.3438 12.5H5.15625C4.89844 12.5 4.6875 12.7109 4.6875 12.9688V14.5312C4.6875 14.7891 4.89844 15 5.15625 15H12.3438Z" fill="#026ABF"/>
</g>
<defs>
<clipPath id="clip0">
<rect width="17.5" height="20" fill="white"/>
</clipPath>
</defs>
</svg>
