<svg width="42" height="42" viewBox="0 0 42 42" fill="none" xmlns="http://www.w3.org/2000/svg">
<path d="M21 2.625C9.40078 2.625 0 10.2621 0 19.6875C0 23.7563 1.75547 27.4805 4.67578 30.409C3.65039 34.5434 0.221484 38.2266 0.180469 38.2676C0.0922 38.3613 0.0334679 38.479 0.0115882 38.6059C-0.0102915 38.7328 0.00564821 38.8633 0.0574219 38.9813C0.106812 39.099 0.190155 39.1993 0.296813 39.2694C0.403471 39.3395 0.528607 39.3763 0.65625 39.375C6.09492 39.375 10.1719 36.7664 12.1898 35.1586C15.007 36.2144 17.9915 36.7535 21 36.75C32.5992 36.75 42 29.1129 42 19.6875C42 10.2621 32.5992 2.625 21 2.625ZM26.25 13.5516C26.6848 13.5516 27.1099 13.6805 27.4714 13.9221C27.8329 14.1636 28.1147 14.507 28.2811 14.9087C28.4475 15.3104 28.491 15.7524 28.4062 16.1789C28.3214 16.6054 28.112 16.9971 27.8045 17.3045C27.4971 17.612 27.1053 17.8214 26.6789 17.9062C26.2524 17.991 25.8104 17.9475 25.4087 17.7811C25.007 17.6147 24.6636 17.3329 24.4221 16.9714C24.1805 16.6099 24.0516 16.1848 24.0516 15.75C24.0516 15.1669 24.2832 14.6078 24.6955 14.1955C25.1078 13.7832 25.6669 13.5516 26.25 13.5516ZM15.75 13.5516C16.1848 13.5516 16.6099 13.6805 16.9714 13.9221C17.3329 14.1636 17.6147 14.507 17.7811 14.9087C17.9475 15.3104 17.991 15.7524 17.9062 16.1789C17.8214 16.6054 17.612 16.9971 17.3045 17.3045C16.9971 17.612 16.6053 17.8214 16.1789 17.9062C15.7524 17.991 15.3104 17.9475 14.9087 17.7811C14.507 17.6147 14.1636 17.3329 13.9221 16.9714C13.6805 16.6099 13.5516 16.1848 13.5516 15.75C13.5516 15.1669 13.7832 14.6078 14.1955 14.1955C14.6078 13.7832 15.1669 13.5516 15.75 13.5516ZM29.2195 25.1098C28.2006 26.2912 26.9389 27.2391 25.5204 27.8889C24.102 28.5386 22.5602 28.8749 21 28.8749C19.4398 28.8749 17.898 28.5386 16.4796 27.8889C15.0611 27.2391 13.7994 26.2912 12.7805 25.1098C12.6544 24.9812 12.5561 24.828 12.4917 24.6598C12.4274 24.4916 12.3983 24.3119 12.4064 24.132C12.4144 23.9521 12.4594 23.7758 12.5386 23.614C12.6177 23.4522 12.7293 23.3084 12.8664 23.1917C13.0035 23.0749 13.1632 22.9875 13.3355 22.9351C13.5078 22.8827 13.6891 22.8663 13.868 22.8869C14.0469 22.9076 14.2197 22.9648 14.3755 23.0551C14.5313 23.1454 14.6669 23.2668 14.7738 23.4117C15.5463 24.3034 16.5015 25.0183 17.5747 25.5081C18.6479 25.9979 19.814 26.251 20.9937 26.2502C22.1734 26.2494 23.3391 25.9948 24.4116 25.5036C25.4842 25.0124 26.4385 24.2962 27.2098 23.4035C27.4371 23.1407 27.759 22.9783 28.1055 22.9516C28.452 22.925 28.795 23.0362 29.0599 23.2611C29.3248 23.486 29.4902 23.8064 29.5201 24.1526C29.55 24.4988 29.442 24.8428 29.2195 25.1098Z" fill="white"/>
<path d="M26.25 17.9484C26.6848 17.9484 27.1098 17.8195 27.4714 17.5779C27.8329 17.3363 28.1147 16.993 28.2811 16.5913C28.4475 16.1895 28.491 15.7475 28.4062 15.3211C28.3213 14.8946 28.112 14.5029 27.8045 14.1954C27.497 13.888 27.1053 13.6786 26.6789 13.5938C26.2524 13.5089 25.8104 13.5525 25.4087 13.7189C25.007 13.8853 24.6636 14.167 24.422 14.5286C24.1805 14.8901 24.0515 15.3151 24.0515 15.75C24.0515 16.333 24.2832 16.8922 24.6954 17.3045C25.1077 17.7168 25.6669 17.9484 26.25 17.9484ZM15.75 17.9484C16.1848 17.9484 16.6098 17.8195 16.9714 17.5779C17.3329 17.3363 17.6147 16.993 17.7811 16.5913C17.9475 16.1895 17.991 15.7475 17.9062 15.3211C17.8213 14.8946 17.612 14.5029 17.3045 14.1954C16.997 13.888 16.6053 13.6786 16.1789 13.5938C15.7524 13.5089 15.3104 13.5525 14.9087 13.7189C14.507 13.8853 14.1636 14.167 13.922 14.5286C13.6805 14.8901 13.5515 15.3151 13.5515 15.75C13.5515 16.333 13.7832 16.8922 14.1954 17.3045C14.6077 17.7168 15.1669 17.9484 15.75 17.9484ZM29.0636 23.2558C28.7975 23.0312 28.4535 22.9207 28.1063 22.9483C27.7592 22.976 27.437 23.1395 27.2097 23.4035C26.4385 24.2961 25.4842 25.0124 24.4116 25.5036C23.339 25.9948 22.1733 26.2494 20.9936 26.2502C19.814 26.2509 18.6479 25.9978 17.5747 25.5081C16.5015 25.0183 15.5462 24.3033 14.7738 23.4117C14.6669 23.2667 14.5313 23.1453 14.3755 23.0551C14.2196 22.9648 14.0469 22.9075 13.868 22.8869C13.689 22.8662 13.5078 22.8826 13.3355 22.9351C13.1632 22.9875 13.0035 23.0748 12.8664 23.1916C12.7293 23.3084 12.6177 23.4522 12.5386 23.6139C12.4594 23.7757 12.4144 23.952 12.4063 24.132C12.3983 24.3119 12.4273 24.4915 12.4917 24.6598C12.556 24.828 12.6543 24.9811 12.7804 25.1097C13.7994 26.2912 15.0611 27.2391 16.4795 27.8888C17.898 28.5386 19.4398 28.8749 21 28.8749C22.5601 28.8749 24.102 28.5386 25.5204 27.8888C26.9388 27.2391 28.2005 26.2912 29.2195 25.1097C29.3314 24.9779 29.4161 24.8253 29.4688 24.6607C29.5216 24.4961 29.5413 24.3226 29.5268 24.1504C29.5123 23.9781 29.4639 23.8104 29.3845 23.6569C29.305 23.5034 29.196 23.3671 29.0636 23.2558Z" fill="#0C7EFF"/>
</svg>
