<svg width="19" height="20" viewBox="0 0 19 20" fill="none" xmlns="http://www.w3.org/2000/svg">
<path d="M14.0938 13.7383C14.1914 13.6406 18.2031 10.1289 18.2031 10.1289L17.5195 9.83594C17.1289 9.64453 17.2305 9.38672 17.3242 9.15625C17.418 8.85938 18.1094 6.52734 18.1094 6.52734C18.1094 6.52734 16.2461 6.91797 15.8555 7.01562C15.5625 7.10938 15.4648 6.91797 15.3672 6.72266C15.2695 6.52734 14.7812 5.45703 14.7812 5.45703C14.7812 5.45703 12.7266 7.79688 12.6289 7.89062C12.2383 8.18359 11.8438 7.89062 11.9414 7.5C11.9414 7.10938 13.0195 2.4375 13.0195 2.4375C13.0195 2.4375 11.8438 3.11719 11.4531 3.3125C11.1602 3.50781 10.9609 3.50781 10.7656 3.11719C10.5664 2.82422 9.09766 0 9.09766 0C9.09766 0 7.63281 2.82422 7.4375 3.11719C7.24219 3.50781 7.04688 3.50781 6.75 3.3125C6.35938 3.11719 5.18359 2.4375 5.18359 2.4375C5.18359 2.4375 6.26172 7.10938 6.26172 7.5C6.35938 7.89062 5.96875 8.18359 5.57422 7.89062C5.47656 7.79297 3.42188 5.45703 3.42188 5.45703C3.42188 5.45703 2.93359 6.52344 2.83594 6.71875C2.73828 6.91406 2.64062 7.10547 2.34766 7.01172C1.95312 6.91406 0.09375 6.52344 0.09375 6.52344C0.09375 6.52344 0.78125 8.85547 0.878906 9.15234C0.972656 9.38672 1.07422 9.64062 0.683594 9.83203L0 10.1289C0 10.1289 4.00781 13.6406 4.10938 13.7383C4.30859 13.9336 4.5 14.0312 4.30859 14.6172C4.10938 15.2031 3.91406 15.9883 3.91406 15.9883C3.91406 15.9883 7.63281 15.2031 8.02734 15.1055C8.36719 15.0703 8.74219 15.2031 8.74219 15.5938C8.74219 15.9844 8.51562 20 8.51562 20H9.6875C9.6875 20 9.46094 15.9883 9.46094 15.5938C9.46094 15.1992 9.83203 15.0703 10.1797 15.1055C10.5703 15.2031 14.2891 15.9883 14.2891 15.9883C14.2891 15.9883 14.0938 15.2031 13.8984 14.6172C13.7031 14.0312 13.8984 13.9336 14.0938 13.7383Z" fill="#026ABF"/>
</svg>
