<svg width="18" height="21" viewBox="0 0 18 21" fill="none" xmlns="http://www.w3.org/2000/svg">
<path d="M16.7143 1.3125H1.2817C0.574554 1.3125 0 1.90723 0 2.6373V18.3627C0 19.0928 0.574554 19.6875 1.2817 19.6875H16.7143C17.4214 19.6875 18 19.0928 18 18.3627V2.6373C18 1.90723 17.4214 1.3125 16.7143 1.3125ZM5.44018 17.0625H2.77232V8.29336H5.4442V17.0625H5.44018ZM4.10625 7.0957C3.25045 7.0957 2.55937 6.38613 2.55937 5.5166C2.55937 4.64707 3.25045 3.9375 4.10625 3.9375C4.95804 3.9375 5.65312 4.64707 5.65312 5.5166C5.65312 6.39023 4.96205 7.0957 4.10625 7.0957V7.0957ZM15.4406 17.0625H12.7728V12.7969C12.7728 11.7797 12.7527 10.4713 11.3866 10.4713C9.99643 10.4713 9.78348 11.5787 9.78348 12.723V17.0625H7.11563V8.29336H9.675V9.49102H9.71116C10.0687 8.80195 10.9406 8.07598 12.2384 8.07598C14.9384 8.07598 15.4406 9.89297 15.4406 12.2555V17.0625V17.0625Z" fill="#014C7F"/>
</svg>
