<svg width="18" height="20" viewBox="0 0 18 20" fill="none" xmlns="http://www.w3.org/2000/svg">
<g clip-path="url(#clip0)">
<path d="M15.625 1.25H1.875C0.839844 1.25 0 2.08984 0 3.125V16.875C0 17.9102 0.839844 18.75 1.875 18.75H15.625C16.6602 18.75 17.5 17.9102 17.5 16.875V3.125C17.5 2.08984 16.6602 1.25 15.625 1.25ZM9.6875 15V15.625C9.6875 15.9688 9.40625 16.25 9.0625 16.25H8.4375C8.09375 16.25 7.8125 15.9688 7.8125 15.625V14.9922C7.16797 14.9687 6.53906 14.7656 6 14.4023C5.66016 14.1719 5.60938 13.6953 5.91016 13.418L6.37891 12.9766C6.58984 12.7773 6.89844 12.7656 7.14844 12.9141C7.38672 13.0547 7.65234 13.125 7.92578 13.125H9.68359C10.125 13.125 10.4844 12.7148 10.4844 12.2109C10.4844 11.7969 10.2383 11.4336 9.89062 11.3242L7.07031 10.4688C5.9375 10.125 5.14844 9.02344 5.14844 7.78906C5.14844 6.25391 6.34375 5.00391 7.8125 5V4.375C7.8125 4.03125 8.09375 3.75 8.4375 3.75H9.0625C9.40625 3.75 9.6875 4.03125 9.6875 4.375V5.00781C10.332 5.03125 10.9609 5.23438 11.5 5.59766C11.8398 5.82812 11.8906 6.30469 11.5898 6.58203L11.1211 7.02344C10.9102 7.22266 10.6016 7.23437 10.3516 7.08594C10.1133 6.94531 9.84766 6.875 9.57422 6.875H7.81641C7.375 6.875 7.01562 7.28516 7.01562 7.78906C7.01562 8.20312 7.26172 8.56641 7.60938 8.67578L10.4219 9.53125C11.5547 9.875 12.3438 10.9766 12.3438 12.2109C12.3516 13.7461 11.1562 14.9922 9.6875 15Z" fill="#026ABF"/>
</g>
<defs>
<clipPath id="clip0">
<rect width="17.5" height="20" fill="white"/>
</clipPath>
</defs>
</svg>
