<svg width="51" height="41" viewBox="0 0 51 41" fill="none" xmlns="http://www.w3.org/2000/svg">
<path d="M42.0751 0H8.9251C7.91155 0.00295775 6.94036 0.408873 6.22367 1.12908C5.50698 1.84928 5.10304 2.82523 5.1001 3.84375V30.75H45.9001V3.84375C45.8972 2.82523 45.4932 1.84928 44.7765 1.12908C44.0598 0.408873 43.0886 0.00295775 42.0751 0V0ZM40.8001 25.625H10.2001V5.125H40.8001V25.625Z" fill="#00C1FF"/>
<path d="M49.725 33.3125H30.404C30.345 34.8988 29.2318 35.875 27.795 35.875H22.95C21.4606 35.875 20.3203 34.476 20.3386 33.3125H1.275C0.936849 33.3125 0.612548 33.4475 0.373439 33.6878C0.13433 33.928 0 34.2539 0 34.5938L0 35.875C0.00399414 37.233 0.542597 38.5342 1.49817 39.4945C2.45374 40.4547 3.74862 40.996 5.1 41H45.9C47.2514 40.996 48.5463 40.4547 49.5018 39.4945C50.4574 38.5342 50.996 37.233 51 35.875V34.5938C51 34.2539 50.8657 33.928 50.6266 33.6878C50.3875 33.4475 50.0631 33.3125 49.725 33.3125Z" fill="white"/>
<path opacity="0.4" d="M26.097 12.608L19.4992 13.8967C19.1595 13.9637 18.8518 14.1422 18.6251 14.4039C18.3984 14.6657 18.2657 14.9957 18.2479 15.3415C18.3983 15.4288 18.5242 15.5526 18.614 15.7014C18.7038 15.8502 18.7546 16.0193 18.7617 16.193C18.7688 16.3667 18.732 16.5394 18.6547 16.6951C18.5773 16.8507 18.462 16.9844 18.3193 17.0837L19.1397 20.7742C19.1565 20.8499 19.1561 20.9284 19.1385 21.0039C19.1208 21.0794 19.0864 21.15 19.0378 21.2103C18.9892 21.2707 18.9277 21.3194 18.8577 21.3528C18.7877 21.3862 18.7111 21.4034 18.6336 21.4031H16.8229C16.7455 21.4031 16.6692 21.3857 16.5994 21.3522C16.5297 21.3187 16.4684 21.2699 16.42 21.2096C16.3716 21.1492 16.3374 21.0788 16.3198 21.0034C16.3023 20.9281 16.3019 20.8498 16.3187 20.7742L17.1388 17.0834C16.9958 16.9839 16.8804 16.8498 16.8031 16.6938C16.7258 16.5377 16.6892 16.3646 16.6968 16.1906C16.7043 16.0166 16.7556 15.8473 16.8461 15.6985C16.9365 15.5496 17.0631 15.4261 17.214 15.3392C17.2329 14.754 17.4495 14.1925 17.8286 13.7462C18.2076 13.3 18.7268 12.9954 19.3012 12.8822L25.8987 11.5938C25.9658 11.5794 26.0352 11.5785 26.1026 11.5912C26.1701 11.6039 26.2344 11.6299 26.2917 11.6677C26.349 11.7055 26.3982 11.7544 26.4364 11.8114C26.4747 11.8684 26.5011 11.9325 26.5143 11.9999C26.5275 12.0673 26.5271 12.1366 26.5132 12.2038C26.4993 12.2711 26.4721 12.3349 26.4332 12.3915C26.3944 12.4481 26.3446 12.4964 26.2869 12.5336C26.2292 12.5707 26.1646 12.596 26.097 12.608Z" fill="white"/>
<path d="M35.7629 13.354L26.7513 16.1221C26.2588 16.2727 25.7325 16.2727 25.24 16.1221L18.8812 14.168C19.0647 14.0332 19.2757 13.9407 19.4991 13.897L26.0969 12.6082C26.1645 12.5963 26.2291 12.571 26.2868 12.5338C26.3445 12.4967 26.3943 12.4484 26.4331 12.3917C26.472 12.3351 26.4992 12.2713 26.5131 12.2041C26.527 12.1369 26.5274 12.0675 26.5142 12.0002C26.501 11.9328 26.4746 11.8687 26.4363 11.8117C26.3981 11.7546 26.3489 11.7058 26.2916 11.668C26.2343 11.6302 26.17 11.6041 26.1025 11.5915C26.0351 11.5788 25.9657 11.5796 25.8986 11.594L19.3011 12.8821C18.6923 13.0013 18.1468 13.336 17.7646 13.8246L16.2324 13.3537C15.472 13.1202 15.472 12.1147 16.2324 11.8812L25.242 9.11313C25.7345 8.96229 26.261 8.96229 26.7536 9.11313L35.7629 11.8812C36.5235 12.115 36.5235 13.1202 35.7629 13.354ZM27.0569 17.1101C26.3665 17.3217 25.6287 17.3217 24.9383 17.1101L20.2549 15.6712L19.7963 19.3359C19.7963 20.4777 22.574 21.4031 25.9978 21.4031C29.4215 21.4031 32.1993 20.4777 32.1993 19.3359L31.7409 15.6709L27.0569 17.1101Z" fill="white"/>
</svg>
