<svg width="52" height="42" viewBox="0 0 52 42" fill="none" xmlns="http://www.w3.org/2000/svg">
<g clip-path="url(#clip0)">
<path d="M29.25 14.4375H27.3V11.1562C27.3 10.9822 27.2315 10.8153 27.1096 10.6922C26.9877 10.5691 26.8224 10.5 26.65 10.5H25.35C25.1776 10.5 25.0123 10.5691 24.8904 10.6922C24.7685 10.8153 24.7 10.9822 24.7 11.1562V16.4062C24.7 16.5803 24.7685 16.7472 24.8904 16.8703C25.0123 16.9934 25.1776 17.0625 25.35 17.0625H29.25C29.4224 17.0625 29.5877 16.9934 29.7096 16.8703C29.8315 16.7472 29.9 16.5803 29.9 16.4062V15.0938C29.9 14.9197 29.8315 14.7528 29.7096 14.6297C29.5877 14.5066 29.4224 14.4375 29.25 14.4375ZM0 18.375V40.6875C0 41.0356 0.136964 41.3694 0.380761 41.6156C0.624558 41.8617 0.955218 42 1.3 42H7.8V15.75H2.6C1.91044 15.75 1.24912 16.0266 0.761522 16.5188C0.273928 17.0111 0 17.6788 0 18.375H0ZM49.4 15.75H44.2V42H50.7C51.0448 42 51.3754 41.8617 51.6192 41.6156C51.863 41.3694 52 41.0356 52 40.6875V18.375C52 17.6788 51.7261 17.0111 51.2385 16.5188C50.7509 16.0266 50.0896 15.75 49.4 15.75Z" fill="#00C1FF"/>
<path d="M40.4421 9.18747L27.4421 0.44048C27.015 0.153026 26.5132 -0.000366211 25.9999 -0.000366211C25.4866 -0.000366211 24.9848 0.153026 24.5577 0.44048L11.5577 9.18747C11.2012 9.42745 10.9089 9.75267 10.7069 10.1342C10.5049 10.5158 10.3994 10.9418 10.3999 11.3744V42H20.7999V30.1875C20.7999 29.8394 20.9369 29.5055 21.1807 29.2594C21.4245 29.0133 21.7551 28.875 22.0999 28.875H29.8999C30.2447 28.875 30.5753 29.0133 30.8191 29.2594C31.0629 29.5055 31.1999 29.8394 31.1999 30.1875V42H41.5999V11.3752C41.6005 10.9425 41.4951 10.5163 41.2931 10.1346C41.0911 9.75288 40.7987 9.42752 40.4421 9.18747ZM25.9999 21C24.7143 21 23.4576 20.6151 22.3887 19.894C21.3198 19.1729 20.4867 18.148 19.9947 16.9488C19.5027 15.7497 19.374 14.4302 19.6248 13.1572C19.8756 11.8842 20.4947 10.7149 21.4037 9.79708C22.3127 8.8793 23.4709 8.25428 24.7318 8.00107C25.9927 7.74785 27.2996 7.87781 28.4873 8.37451C29.6751 8.87121 30.6902 9.71234 31.4045 10.7915C32.1187 11.8707 32.4999 13.1395 32.4999 14.4375C32.4999 16.178 31.8151 17.8472 30.5961 19.0779C29.3771 20.3086 27.7238 21 25.9999 21Z" fill="white"/>
</g>
<defs>
<clipPath id="clip0">
<rect width="52" height="42" fill="white"/>
</clipPath>
</defs>
</svg>
