<svg width="50" height="44" viewBox="0 0 50 44" fill="none" xmlns="http://www.w3.org/2000/svg">
<path d="M50.0001 5.39256V34.4257C50.0001 35.8204 48.8603 36.984 47.3959 37.0605C43.1016 37.284 34.4167 38.1004 28.4115 41.0927C27.487 41.5533 26.3907 40.926 26.3907 39.9334V8.66334C26.3891 8.43696 26.4463 8.21397 26.5568 8.01578C26.6673 7.81759 26.8274 7.65084 27.0217 7.53154C32.8586 3.99435 42.3134 3.02154 47.0739 2.75428C48.6667 2.66404 50.0001 3.86717 50.0001 5.39256Z" fill="#00C1FF"/>
<path d="M22.98 7.53154C17.1441 3.99435 7.68924 3.0224 2.93229 2.75428C1.33333 2.66404 0 3.86717 0 5.39256V34.4265C0 35.8222 1.13976 36.9858 2.60417 37.0614C6.90017 37.2848 15.5894 38.1021 21.5946 41.0962C22.5165 41.5559 23.6094 40.9294 23.6094 39.9394V8.64787C23.6112 8.42376 23.5541 8.20304 23.4438 8.00734C23.3334 7.81165 23.1736 7.64769 22.98 7.53154Z" fill="white"/>
</svg>
