<svg width="300" height="279" viewBox="0 0 300 279" fill="none" xmlns="http://www.w3.org/2000/svg">
<g clip-path="url(#clip0)">
<path d="M160.5 7.2C162.488 7.2 164.1 5.58822 164.1 3.6C164.1 1.61177 162.488 0 160.5 0C158.512 0 156.9 1.61177 156.9 3.6C156.9 5.58822 158.512 7.2 160.5 7.2Z" fill="#0C7EFF"/>
<path d="M171 7.2C172.988 7.2 174.6 5.58822 174.6 3.6C174.6 1.61177 172.988 0 171 0C169.012 0 167.4 1.61177 167.4 3.6C167.4 5.58822 169.012 7.2 171 7.2Z" fill="#0C7EFF"/>
<path d="M181.5 7.2C183.488 7.2 185.1 5.58822 185.1 3.6C185.1 1.61177 183.488 0 181.5 0C179.512 0 177.9 1.61177 177.9 3.6C177.9 5.58822 179.512 7.2 181.5 7.2Z" fill="#0C7EFF"/>
<path d="M150 17.4C151.988 17.4 153.6 15.7882 153.6 13.8C153.6 11.8118 151.988 10.2 150 10.2C148.012 10.2 146.4 11.8118 146.4 13.8C146.4 15.7882 148.012 17.4 150 17.4Z" fill="#0C7EFF"/>
<path d="M160.5 17.4C162.488 17.4 164.1 15.7882 164.1 13.8C164.1 11.8118 162.488 10.2 160.5 10.2C158.512 10.2 156.9 11.8118 156.9 13.8C156.9 15.7882 158.512 17.4 160.5 17.4Z" fill="#0C7EFF"/>
<path d="M171 17.4C172.988 17.4 174.6 15.7882 174.6 13.8C174.6 11.8118 172.988 10.2 171 10.2C169.012 10.2 167.4 11.8118 167.4 13.8C167.4 15.7882 169.012 17.4 171 17.4Z" fill="#0C7EFF"/>
<path d="M181.5 17.4C183.488 17.4 185.1 15.7882 185.1 13.8C185.1 11.8118 183.488 10.2 181.5 10.2C179.512 10.2 177.9 11.8118 177.9 13.8C177.9 15.7882 179.512 17.4 181.5 17.4Z" fill="#0C7EFF"/>
<path d="M139.5 27.9C141.488 27.9 143.1 26.2882 143.1 24.3C143.1 22.3118 141.488 20.7 139.5 20.7C137.512 20.7 135.9 22.3118 135.9 24.3C135.9 26.2882 137.512 27.9 139.5 27.9Z" fill="#0C7EFF"/>
<path d="M150 27.9C151.988 27.9 153.6 26.2882 153.6 24.3C153.6 22.3118 151.988 20.7 150 20.7C148.012 20.7 146.4 22.3118 146.4 24.3C146.4 26.2882 148.012 27.9 150 27.9Z" fill="#0C7EFF"/>
<path d="M160.5 27.9C162.488 27.9 164.1 26.2882 164.1 24.3C164.1 22.3118 162.488 20.7 160.5 20.7C158.512 20.7 156.9 22.3118 156.9 24.3C156.9 26.2882 158.512 27.9 160.5 27.9Z" fill="#0C7EFF"/>
<path d="M171 27.9C172.988 27.9 174.6 26.2882 174.6 24.3C174.6 22.3118 172.988 20.7 171 20.7C169.012 20.7 167.4 22.3118 167.4 24.3C167.4 26.2882 169.012 27.9 171 27.9Z" fill="#0C7EFF"/>
<path d="M139.5 38.4C141.488 38.4 143.1 36.7882 143.1 34.8C143.1 32.8118 141.488 31.2 139.5 31.2C137.512 31.2 135.9 32.8118 135.9 34.8C135.9 36.7882 137.512 38.4 139.5 38.4Z" fill="#0C7EFF"/>
<path d="M150 38.4C151.988 38.4 153.6 36.7882 153.6 34.8C153.6 32.8118 151.988 31.2 150 31.2C148.012 31.2 146.4 32.8118 146.4 34.8C146.4 36.7882 148.012 38.4 150 38.4Z" fill="#0C7EFF"/>
<path d="M160.5 38.4C162.488 38.4 164.1 36.7882 164.1 34.8C164.1 32.8118 162.488 31.2 160.5 31.2C158.512 31.2 156.9 32.8118 156.9 34.8C156.9 36.7882 158.512 38.4 160.5 38.4Z" fill="#0C7EFF"/>
<path d="M171 38.4C172.988 38.4 174.6 36.7882 174.6 34.8C174.6 32.8118 172.988 31.2 171 31.2C169.012 31.2 167.4 32.8118 167.4 34.8C167.4 36.7882 169.012 38.4 171 38.4Z" fill="#0C7EFF"/>
<path d="M118.5 48.9C120.488 48.9 122.1 47.2882 122.1 45.3C122.1 43.3118 120.488 41.7 118.5 41.7C116.512 41.7 114.9 43.3118 114.9 45.3C114.9 47.2882 116.512 48.9 118.5 48.9Z" fill="#0C7EFF"/>
<path d="M139.5 48.9C141.488 48.9 143.1 47.2882 143.1 45.3C143.1 43.3118 141.488 41.7 139.5 41.7C137.512 41.7 135.9 43.3118 135.9 45.3C135.9 47.2882 137.512 48.9 139.5 48.9Z" fill="#0C7EFF"/>
<path d="M150 48.9C151.988 48.9 153.6 47.2882 153.6 45.3C153.6 43.3118 151.988 41.7 150 41.7C148.012 41.7 146.4 43.3118 146.4 45.3C146.4 47.2882 148.012 48.9 150 48.9Z" fill="#0C7EFF"/>
<path d="M160.5 48.9C162.488 48.9 164.1 47.2882 164.1 45.3C164.1 43.3118 162.488 41.7 160.5 41.7C158.512 41.7 156.9 43.3118 156.9 45.3C156.9 47.2882 158.512 48.9 160.5 48.9Z" fill="#0C7EFF"/>
<path d="M171 48.9C172.988 48.9 174.6 47.2882 174.6 45.3C174.6 43.3118 172.988 41.7 171 41.7C169.012 41.7 167.4 43.3118 167.4 45.3C167.4 47.2882 169.012 48.9 171 48.9Z" fill="#0C7EFF"/>
<path d="M97.8 59.4C99.7882 59.4 101.4 57.7882 101.4 55.8C101.4 53.8118 99.7882 52.2 97.8 52.2C95.8118 52.2 94.2 53.8118 94.2 55.8C94.2 57.7882 95.8118 59.4 97.8 59.4Z" fill="#0C7EFF"/>
<path d="M108.3 59.4C110.288 59.4 111.9 57.7882 111.9 55.8C111.9 53.8118 110.288 52.2 108.3 52.2C106.312 52.2 104.7 53.8118 104.7 55.8C104.7 57.7882 106.312 59.4 108.3 59.4Z" fill="#0C7EFF"/>
<path d="M118.5 59.4C120.488 59.4 122.1 57.7882 122.1 55.8C122.1 53.8118 120.488 52.2 118.5 52.2C116.512 52.2 114.9 53.8118 114.9 55.8C114.9 57.7882 116.512 59.4 118.5 59.4Z" fill="#0C7EFF"/>
<path d="M129 59.4C130.988 59.4 132.6 57.7882 132.6 55.8C132.6 53.8118 130.988 52.2 129 52.2C127.012 52.2 125.4 53.8118 125.4 55.8C125.4 57.7882 127.012 59.4 129 59.4Z" fill="#0C7EFF"/>
<path d="M150 59.4C151.988 59.4 153.6 57.7882 153.6 55.8C153.6 53.8118 151.988 52.2 150 52.2C148.012 52.2 146.4 53.8118 146.4 55.8C146.4 57.7882 148.012 59.4 150 59.4Z" fill="#0C7EFF"/>
<path d="M160.5 59.4C162.488 59.4 164.1 57.7882 164.1 55.8C164.1 53.8118 162.488 52.2 160.5 52.2C158.512 52.2 156.9 53.8118 156.9 55.8C156.9 57.7882 158.512 59.4 160.5 59.4Z" fill="#0C7EFF"/>
<path d="M171 59.4C172.988 59.4 174.6 57.7882 174.6 55.8C174.6 53.8118 172.988 52.2 171 52.2C169.012 52.2 167.4 53.8118 167.4 55.8C167.4 57.7882 169.012 59.4 171 59.4Z" fill="#0C7EFF"/>
<path d="M87.3 69.9C89.2882 69.9 90.9 68.2882 90.9 66.3C90.9 64.3118 89.2882 62.7 87.3 62.7C85.3118 62.7 83.7 64.3118 83.7 66.3C83.7 68.2882 85.3118 69.9 87.3 69.9Z" fill="#0C7EFF"/>
<path d="M97.8 69.9C99.7882 69.9 101.4 68.2882 101.4 66.3C101.4 64.3118 99.7882 62.7 97.8 62.7C95.8118 62.7 94.2 64.3118 94.2 66.3C94.2 68.2882 95.8118 69.9 97.8 69.9Z" fill="#0C7EFF"/>
<path d="M108.3 69.9C110.288 69.9 111.9 68.2882 111.9 66.3C111.9 64.3118 110.288 62.7 108.3 62.7C106.312 62.7 104.7 64.3118 104.7 66.3C104.7 68.2882 106.312 69.9 108.3 69.9Z" fill="#0C7EFF"/>
<path d="M118.5 69.9C120.488 69.9 122.1 68.2882 122.1 66.3C122.1 64.3118 120.488 62.7 118.5 62.7C116.512 62.7 114.9 64.3118 114.9 66.3C114.9 68.2882 116.512 69.9 118.5 69.9Z" fill="#0C7EFF"/>
<path d="M129 69.9C130.988 69.9 132.6 68.2882 132.6 66.3C132.6 64.3118 130.988 62.7 129 62.7C127.012 62.7 125.4 64.3118 125.4 66.3C125.4 68.2882 127.012 69.9 129 69.9Z" fill="#0C7EFF"/>
<path d="M139.5 69.9C141.488 69.9 143.1 68.2882 143.1 66.3C143.1 64.3118 141.488 62.7 139.5 62.7C137.512 62.7 135.9 64.3118 135.9 66.3C135.9 68.2882 137.512 69.9 139.5 69.9Z" fill="#0C7EFF"/>
<path d="M150 69.9C151.988 69.9 153.6 68.2882 153.6 66.3C153.6 64.3118 151.988 62.7 150 62.7C148.012 62.7 146.4 64.3118 146.4 66.3C146.4 68.2882 148.012 69.9 150 69.9Z" fill="#0C7EFF"/>
<path d="M160.5 69.9C162.488 69.9 164.1 68.2882 164.1 66.3C164.1 64.3118 162.488 62.7 160.5 62.7C158.512 62.7 156.9 64.3118 156.9 66.3C156.9 68.2882 158.512 69.9 160.5 69.9Z" fill="#0C7EFF"/>
<path d="M97.8 80.1C99.7882 80.1 101.4 78.4882 101.4 76.5C101.4 74.5118 99.7882 72.9 97.8 72.9C95.8118 72.9 94.2 74.5118 94.2 76.5C94.2 78.4882 95.8118 80.1 97.8 80.1Z" fill="#0C7EFF"/>
<path d="M108.3 80.1C110.288 80.1 111.9 78.4882 111.9 76.5C111.9 74.5118 110.288 72.9 108.3 72.9C106.312 72.9 104.7 74.5118 104.7 76.5C104.7 78.4882 106.312 80.1 108.3 80.1Z" fill="#0C7EFF"/>
<path d="M118.5 80.1C120.488 80.1 122.1 78.4882 122.1 76.5C122.1 74.5118 120.488 72.9 118.5 72.9C116.512 72.9 114.9 74.5118 114.9 76.5C114.9 78.4882 116.512 80.1 118.5 80.1Z" fill="#0C7EFF"/>
<path d="M129 80.1C130.988 80.1 132.6 78.4882 132.6 76.5C132.6 74.5118 130.988 72.9 129 72.9C127.012 72.9 125.4 74.5118 125.4 76.5C125.4 78.4882 127.012 80.1 129 80.1Z" fill="#0C7EFF"/>
<path d="M139.5 80.1C141.488 80.1 143.1 78.4882 143.1 76.5C143.1 74.5118 141.488 72.9 139.5 72.9C137.512 72.9 135.9 74.5118 135.9 76.5C135.9 78.4882 137.512 80.1 139.5 80.1Z" fill="#0C7EFF"/>
<path d="M150 80.1C151.988 80.1 153.6 78.4882 153.6 76.5C153.6 74.5118 151.988 72.9 150 72.9C148.012 72.9 146.4 74.5118 146.4 76.5C146.4 78.4882 148.012 80.1 150 80.1Z" fill="#0C7EFF"/>
<path d="M160.5 80.1C162.488 80.1 164.1 78.4882 164.1 76.5C164.1 74.5118 162.488 72.9 160.5 72.9C158.512 72.9 156.9 74.5118 156.9 76.5C156.9 78.4882 158.512 80.1 160.5 80.1Z" fill="#0C7EFF"/>
<path d="M76.8 90.6C78.7882 90.6 80.4 88.9882 80.4 87C80.4 85.0118 78.7882 83.4 76.8 83.4C74.8118 83.4 73.2 85.0118 73.2 87C73.2 88.9882 74.8118 90.6 76.8 90.6Z" fill="#0C7EFF"/>
<path d="M87.3 90.6C89.2882 90.6 90.9 88.9882 90.9 87C90.9 85.0118 89.2882 83.4 87.3 83.4C85.3118 83.4 83.7 85.0118 83.7 87C83.7 88.9882 85.3118 90.6 87.3 90.6Z" fill="#0C7EFF"/>
<path d="M129 90.6C130.988 90.6 132.6 88.9882 132.6 87C132.6 85.0118 130.988 83.4 129 83.4C127.012 83.4 125.4 85.0118 125.4 87C125.4 88.9882 127.012 90.6 129 90.6Z" fill="#0C7EFF"/>
<path d="M139.5 90.6C141.488 90.6 143.1 88.9882 143.1 87C143.1 85.0118 141.488 83.4 139.5 83.4C137.512 83.4 135.9 85.0118 135.9 87C135.9 88.9882 137.512 90.6 139.5 90.6Z" fill="#0C7EFF"/>
<path d="M150 90.6C151.988 90.6 153.6 88.9882 153.6 87C153.6 85.0118 151.988 83.4 150 83.4C148.012 83.4 146.4 85.0118 146.4 87C146.4 88.9882 148.012 90.6 150 90.6Z" fill="#0C7EFF"/>
<path d="M160.5 90.6C162.488 90.6 164.1 88.9882 164.1 87C164.1 85.0118 162.488 83.4 160.5 83.4C158.512 83.4 156.9 85.0118 156.9 87C156.9 88.9882 158.512 90.6 160.5 90.6Z" fill="#0C7EFF"/>
<path d="M171 90.6C172.988 90.6 174.6 88.9882 174.6 87C174.6 85.0118 172.988 83.4 171 83.4C169.012 83.4 167.4 85.0118 167.4 87C167.4 88.9882 169.012 90.6 171 90.6Z" fill="#0C7EFF"/>
<path d="M66.3 101.1C68.2882 101.1 69.9 99.4882 69.9 97.5C69.9 95.5118 68.2882 93.9 66.3 93.9C64.3118 93.9 62.7 95.5118 62.7 97.5C62.7 99.4882 64.3118 101.1 66.3 101.1Z" fill="#0C7EFF"/>
<path d="M76.8 101.1C78.7882 101.1 80.4 99.4882 80.4 97.5C80.4 95.5118 78.7882 93.9 76.8 93.9C74.8118 93.9 73.2 95.5118 73.2 97.5C73.2 99.4882 74.8118 101.1 76.8 101.1Z" fill="#0C7EFF"/>
<path d="M87.3 101.1C89.2882 101.1 90.9 99.4882 90.9 97.5C90.9 95.5118 89.2882 93.9 87.3 93.9C85.3118 93.9 83.7 95.5118 83.7 97.5C83.7 99.4882 85.3118 101.1 87.3 101.1Z" fill="#0C7EFF"/>
<path d="M97.8 101.1C99.7882 101.1 101.4 99.4882 101.4 97.5C101.4 95.5118 99.7882 93.9 97.8 93.9C95.8118 93.9 94.2 95.5118 94.2 97.5C94.2 99.4882 95.8118 101.1 97.8 101.1Z" fill="#0C7EFF"/>
<path d="M108.3 101.1C110.288 101.1 111.9 99.4882 111.9 97.5C111.9 95.5118 110.288 93.9 108.3 93.9C106.312 93.9 104.7 95.5118 104.7 97.5C104.7 99.4882 106.312 101.1 108.3 101.1Z" fill="#0C7EFF"/>
<path d="M129 101.1C130.988 101.1 132.6 99.4882 132.6 97.5C132.6 95.5118 130.988 93.9 129 93.9C127.012 93.9 125.4 95.5118 125.4 97.5C125.4 99.4882 127.012 101.1 129 101.1Z" fill="#0C7EFF"/>
<path d="M139.5 101.1C141.488 101.1 143.1 99.4882 143.1 97.5C143.1 95.5118 141.488 93.9 139.5 93.9C137.512 93.9 135.9 95.5118 135.9 97.5C135.9 99.4882 137.512 101.1 139.5 101.1Z" fill="#0C7EFF"/>
<path d="M150 101.1C151.988 101.1 153.6 99.4882 153.6 97.5C153.6 95.5118 151.988 93.9 150 93.9C148.012 93.9 146.4 95.5118 146.4 97.5C146.4 99.4882 148.012 101.1 150 101.1Z" fill="#0C7EFF"/>
<path d="M160.5 101.1C162.488 101.1 164.1 99.4882 164.1 97.5C164.1 95.5118 162.488 93.9 160.5 93.9C158.512 93.9 156.9 95.5118 156.9 97.5C156.9 99.4882 158.512 101.1 160.5 101.1Z" fill="#0C7EFF"/>
<path d="M171 101.1C172.988 101.1 174.6 99.4882 174.6 97.5C174.6 95.5118 172.988 93.9 171 93.9C169.012 93.9 167.4 95.5118 167.4 97.5C167.4 99.4882 169.012 101.1 171 101.1Z" fill="#0C7EFF"/>
<path d="M181.5 101.1C183.488 101.1 185.1 99.4882 185.1 97.5C185.1 95.5118 183.488 93.9 181.5 93.9C179.512 93.9 177.9 95.5118 177.9 97.5C177.9 99.4882 179.512 101.1 181.5 101.1Z" fill="#0C7EFF"/>
<path d="M195.258 98.0761C195.577 96.1135 194.244 94.2643 192.281 93.9458C190.319 93.6273 188.47 94.96 188.151 96.9226C187.833 98.8852 189.165 100.734 191.128 101.053C193.09 101.371 194.94 100.039 195.258 98.0761Z" fill="#0C7EFF"/>
<path d="M24.6 111.6C26.5882 111.6 28.2 109.988 28.2 108C28.2 106.012 26.5882 104.4 24.6 104.4C22.6118 104.4 21 106.012 21 108C21 109.988 22.6118 111.6 24.6 111.6Z" fill="#0C7EFF"/>
<path d="M35.1 111.6C37.0882 111.6 38.7 109.988 38.7 108C38.7 106.012 37.0882 104.4 35.1 104.4C33.1118 104.4 31.5 106.012 31.5 108C31.5 109.988 33.1118 111.6 35.1 111.6Z" fill="#0C7EFF"/>
<path d="M45.6 111.6C47.5882 111.6 49.2 109.988 49.2 108C49.2 106.012 47.5882 104.4 45.6 104.4C43.6118 104.4 42 106.012 42 108C42 109.988 43.6118 111.6 45.6 111.6Z" fill="#0C7EFF"/>
<path d="M55.8 111.6C57.7882 111.6 59.4 109.988 59.4 108C59.4 106.012 57.7882 104.4 55.8 104.4C53.8118 104.4 52.2 106.012 52.2 108C52.2 109.988 53.8118 111.6 55.8 111.6Z" fill="#0C7EFF"/>
<path d="M76.8 111.6C78.7882 111.6 80.4 109.988 80.4 108C80.4 106.012 78.7882 104.4 76.8 104.4C74.8118 104.4 73.2 106.012 73.2 108C73.2 109.988 74.8118 111.6 76.8 111.6Z" fill="#0C7EFF"/>
<path d="M87.3 111.6C89.2882 111.6 90.9 109.988 90.9 108C90.9 106.012 89.2882 104.4 87.3 104.4C85.3118 104.4 83.7 106.012 83.7 108C83.7 109.988 85.3118 111.6 87.3 111.6Z" fill="#0C7EFF"/>
<path d="M97.8 111.6C99.7882 111.6 101.4 109.988 101.4 108C101.4 106.012 99.7882 104.4 97.8 104.4C95.8118 104.4 94.2 106.012 94.2 108C94.2 109.988 95.8118 111.6 97.8 111.6Z" fill="#0C7EFF"/>
<path d="M108.3 111.6C110.288 111.6 111.9 109.988 111.9 108C111.9 106.012 110.288 104.4 108.3 104.4C106.312 104.4 104.7 106.012 104.7 108C104.7 109.988 106.312 111.6 108.3 111.6Z" fill="#0C7EFF"/>
<path d="M129 111.6C130.988 111.6 132.6 109.988 132.6 108C132.6 106.012 130.988 104.4 129 104.4C127.012 104.4 125.4 106.012 125.4 108C125.4 109.988 127.012 111.6 129 111.6Z" fill="#0C7EFF"/>
<path d="M139.5 111.6C141.488 111.6 143.1 109.988 143.1 108C143.1 106.012 141.488 104.4 139.5 104.4C137.512 104.4 135.9 106.012 135.9 108C135.9 109.988 137.512 111.6 139.5 111.6Z" fill="#0C7EFF"/>
<path d="M150 111.6C151.988 111.6 153.6 109.988 153.6 108C153.6 106.012 151.988 104.4 150 104.4C148.012 104.4 146.4 106.012 146.4 108C146.4 109.988 148.012 111.6 150 111.6Z" fill="#0C7EFF"/>
<path d="M160.5 111.6C162.488 111.6 164.1 109.988 164.1 108C164.1 106.012 162.488 104.4 160.5 104.4C158.512 104.4 156.9 106.012 156.9 108C156.9 109.988 158.512 111.6 160.5 111.6Z" fill="#0C7EFF"/>
<path d="M171 111.6C172.988 111.6 174.6 109.988 174.6 108C174.6 106.012 172.988 104.4 171 104.4C169.012 104.4 167.4 106.012 167.4 108C167.4 109.988 169.012 111.6 171 111.6Z" fill="#0C7EFF"/>
<path d="M181.5 111.6C183.488 111.6 185.1 109.988 185.1 108C185.1 106.012 183.488 104.4 181.5 104.4C179.512 104.4 177.9 106.012 177.9 108C177.9 109.988 179.512 111.6 181.5 111.6Z" fill="#0C7EFF"/>
<path d="M195.258 108.576C195.577 106.614 194.244 104.764 192.281 104.446C190.319 104.127 188.47 105.46 188.151 107.423C187.833 109.385 189.165 111.235 191.128 111.553C193.091 111.872 194.94 110.539 195.258 108.576Z" fill="#0C7EFF"/>
<path d="M202.2 111.6C204.188 111.6 205.8 109.988 205.8 108C205.8 106.012 204.188 104.4 202.2 104.4C200.212 104.4 198.6 106.012 198.6 108C198.6 109.988 200.212 111.6 202.2 111.6Z" fill="#0C7EFF"/>
<path d="M24.6 122.1C26.5882 122.1 28.2 120.488 28.2 118.5C28.2 116.512 26.5882 114.9 24.6 114.9C22.6118 114.9 21 116.512 21 118.5C21 120.488 22.6118 122.1 24.6 122.1Z" fill="#0C7EFF"/>
<path d="M35.1 122.1C37.0882 122.1 38.7 120.488 38.7 118.5C38.7 116.512 37.0882 114.9 35.1 114.9C33.1118 114.9 31.5 116.512 31.5 118.5C31.5 120.488 33.1118 122.1 35.1 122.1Z" fill="#0C7EFF"/>
<path d="M45.6 122.1C47.5882 122.1 49.2 120.488 49.2 118.5C49.2 116.512 47.5882 114.9 45.6 114.9C43.6118 114.9 42 116.512 42 118.5C42 120.488 43.6118 122.1 45.6 122.1Z" fill="#0C7EFF"/>
<path d="M55.8 122.1C57.7882 122.1 59.4 120.488 59.4 118.5C59.4 116.512 57.7882 114.9 55.8 114.9C53.8118 114.9 52.2 116.512 52.2 118.5C52.2 120.488 53.8118 122.1 55.8 122.1Z" fill="#0C7EFF"/>
<path d="M66.3 122.1C68.2882 122.1 69.9 120.488 69.9 118.5C69.9 116.512 68.2882 114.9 66.3 114.9C64.3118 114.9 62.7 116.512 62.7 118.5C62.7 120.488 64.3118 122.1 66.3 122.1Z" fill="#0C7EFF"/>
<path d="M76.8 122.1C78.7882 122.1 80.4 120.488 80.4 118.5C80.4 116.512 78.7882 114.9 76.8 114.9C74.8118 114.9 73.2 116.512 73.2 118.5C73.2 120.488 74.8118 122.1 76.8 122.1Z" fill="#0C7EFF"/>
<path d="M87.3 122.1C89.2882 122.1 90.9 120.488 90.9 118.5C90.9 116.512 89.2882 114.9 87.3 114.9C85.3118 114.9 83.7 116.512 83.7 118.5C83.7 120.488 85.3118 122.1 87.3 122.1Z" fill="#0C7EFF"/>
<path d="M97.8 122.1C99.7882 122.1 101.4 120.488 101.4 118.5C101.4 116.512 99.7882 114.9 97.8 114.9C95.8118 114.9 94.2 116.512 94.2 118.5C94.2 120.488 95.8118 122.1 97.8 122.1Z" fill="#0C7EFF"/>
<path d="M108.3 122.1C110.288 122.1 111.9 120.488 111.9 118.5C111.9 116.512 110.288 114.9 108.3 114.9C106.312 114.9 104.7 116.512 104.7 118.5C104.7 120.488 106.312 122.1 108.3 122.1Z" fill="#0C7EFF"/>
<path d="M118.5 122.1C120.488 122.1 122.1 120.488 122.1 118.5C122.1 116.512 120.488 114.9 118.5 114.9C116.512 114.9 114.9 116.512 114.9 118.5C114.9 120.488 116.512 122.1 118.5 122.1Z" fill="#0C7EFF"/>
<path d="M139.5 122.1C141.488 122.1 143.1 120.488 143.1 118.5C143.1 116.512 141.488 114.9 139.5 114.9C137.512 114.9 135.9 116.512 135.9 118.5C135.9 120.488 137.512 122.1 139.5 122.1Z" fill="#0C7EFF"/>
<path d="M160.5 122.1C162.488 122.1 164.1 120.488 164.1 118.5C164.1 116.512 162.488 114.9 160.5 114.9C158.512 114.9 156.9 116.512 156.9 118.5C156.9 120.488 158.512 122.1 160.5 122.1Z" fill="#0C7EFF"/>
<path d="M171 122.1C172.988 122.1 174.6 120.488 174.6 118.5C174.6 116.512 172.988 114.9 171 114.9C169.012 114.9 167.4 116.512 167.4 118.5C167.4 120.488 169.012 122.1 171 122.1Z" fill="#0C7EFF"/>
<path d="M181.5 122.1C183.488 122.1 185.1 120.488 185.1 118.5C185.1 116.512 183.488 114.9 181.5 114.9C179.512 114.9 177.9 116.512 177.9 118.5C177.9 120.488 179.512 122.1 181.5 122.1Z" fill="#0C7EFF"/>
<path d="M195.258 119.076C195.577 117.114 194.244 115.265 192.282 114.946C190.319 114.628 188.47 115.96 188.151 117.923C187.833 119.885 189.166 121.735 191.128 122.053C193.091 122.372 194.94 121.039 195.258 119.076Z" fill="#0C7EFF"/>
<path d="M202.2 122.1C204.188 122.1 205.8 120.488 205.8 118.5C205.8 116.512 204.188 114.9 202.2 114.9C200.212 114.9 198.6 116.512 198.6 118.5C198.6 120.488 200.212 122.1 202.2 122.1Z" fill="#0C7EFF"/>
<path d="M212.7 122.1C214.688 122.1 216.3 120.488 216.3 118.5C216.3 116.512 214.688 114.9 212.7 114.9C210.712 114.9 209.1 116.512 209.1 118.5C209.1 120.488 210.712 122.1 212.7 122.1Z" fill="#0C7EFF"/>
<path d="M14.1 132.6C16.0882 132.6 17.7 130.988 17.7 129C17.7 127.012 16.0882 125.4 14.1 125.4C12.1118 125.4 10.5 127.012 10.5 129C10.5 130.988 12.1118 132.6 14.1 132.6Z" fill="#0C7EFF"/>
<path d="M24.6 132.6C26.5882 132.6 28.2 130.988 28.2 129C28.2 127.012 26.5882 125.4 24.6 125.4C22.6118 125.4 21 127.012 21 129C21 130.988 22.6118 132.6 24.6 132.6Z" fill="#0C7EFF"/>
<path d="M35.1 132.6C37.0882 132.6 38.7 130.988 38.7 129C38.7 127.012 37.0882 125.4 35.1 125.4C33.1118 125.4 31.5 127.012 31.5 129C31.5 130.988 33.1118 132.6 35.1 132.6Z" fill="#0C7EFF"/>
<path d="M45.6 132.6C47.5882 132.6 49.2 130.988 49.2 129C49.2 127.012 47.5882 125.4 45.6 125.4C43.6118 125.4 42 127.012 42 129C42 130.988 43.6118 132.6 45.6 132.6Z" fill="#0C7EFF"/>
<path d="M55.8 132.6C57.7882 132.6 59.4 130.988 59.4 129C59.4 127.012 57.7882 125.4 55.8 125.4C53.8118 125.4 52.2 127.012 52.2 129C52.2 130.988 53.8118 132.6 55.8 132.6Z" fill="#0C7EFF"/>
<path d="M66.3 132.6C68.2882 132.6 69.9 130.988 69.9 129C69.9 127.012 68.2882 125.4 66.3 125.4C64.3118 125.4 62.7 127.012 62.7 129C62.7 130.988 64.3118 132.6 66.3 132.6Z" fill="#0C7EFF"/>
<path d="M76.8 132.6C78.7882 132.6 80.4 130.988 80.4 129C80.4 127.012 78.7882 125.4 76.8 125.4C74.8118 125.4 73.2 127.012 73.2 129C73.2 130.988 74.8118 132.6 76.8 132.6Z" fill="#0C7EFF"/>
<path d="M87.3 132.6C89.2882 132.6 90.9 130.988 90.9 129C90.9 127.012 89.2882 125.4 87.3 125.4C85.3118 125.4 83.7 127.012 83.7 129C83.7 130.988 85.3118 132.6 87.3 132.6Z" fill="#0C7EFF"/>
<path d="M97.8 132.6C99.7882 132.6 101.4 130.988 101.4 129C101.4 127.012 99.7882 125.4 97.8 125.4C95.8118 125.4 94.2 127.012 94.2 129C94.2 130.988 95.8118 132.6 97.8 132.6Z" fill="#0C7EFF"/>
<path d="M108.3 132.6C110.288 132.6 111.9 130.988 111.9 129C111.9 127.012 110.288 125.4 108.3 125.4C106.312 125.4 104.7 127.012 104.7 129C104.7 130.988 106.312 132.6 108.3 132.6Z" fill="#0C7EFF"/>
<path d="M129 132.6C130.988 132.6 132.6 130.988 132.6 129C132.6 127.012 130.988 125.4 129 125.4C127.012 125.4 125.4 127.012 125.4 129C125.4 130.988 127.012 132.6 129 132.6Z" fill="#0C7EFF"/>
<path d="M139.5 132.6C141.488 132.6 143.1 130.988 143.1 129C143.1 127.012 141.488 125.4 139.5 125.4C137.512 125.4 135.9 127.012 135.9 129C135.9 130.988 137.512 132.6 139.5 132.6Z" fill="#0C7EFF"/>
<path d="M150 132.6C151.988 132.6 153.6 130.988 153.6 129C153.6 127.012 151.988 125.4 150 125.4C148.012 125.4 146.4 127.012 146.4 129C146.4 130.988 148.012 132.6 150 132.6Z" fill="#0C7EFF"/>
<path d="M160.5 132.6C162.488 132.6 164.1 130.988 164.1 129C164.1 127.012 162.488 125.4 160.5 125.4C158.512 125.4 156.9 127.012 156.9 129C156.9 130.988 158.512 132.6 160.5 132.6Z" fill="#0C7EFF"/>
<path d="M171 132.6C172.988 132.6 174.6 130.988 174.6 129C174.6 127.012 172.988 125.4 171 125.4C169.012 125.4 167.4 127.012 167.4 129C167.4 130.988 169.012 132.6 171 132.6Z" fill="#0C7EFF"/>
<path d="M202.2 132.6C204.188 132.6 205.8 130.988 205.8 129C205.8 127.012 204.188 125.4 202.2 125.4C200.212 125.4 198.6 127.012 198.6 129C198.6 130.988 200.212 132.6 202.2 132.6Z" fill="#0C7EFF"/>
<path d="M212.7 132.6C214.688 132.6 216.3 130.988 216.3 129C216.3 127.012 214.688 125.4 212.7 125.4C210.712 125.4 209.1 127.012 209.1 129C209.1 130.988 210.712 132.6 212.7 132.6Z" fill="#0C7EFF"/>
<path d="M223.2 132.6C225.188 132.6 226.8 130.988 226.8 129C226.8 127.012 225.188 125.4 223.2 125.4C221.212 125.4 219.6 127.012 219.6 129C219.6 130.988 221.212 132.6 223.2 132.6Z" fill="#0C7EFF"/>
<path d="M14.1 142.8C16.0882 142.8 17.7 141.188 17.7 139.2C17.7 137.212 16.0882 135.6 14.1 135.6C12.1118 135.6 10.5 137.212 10.5 139.2C10.5 141.188 12.1118 142.8 14.1 142.8Z" fill="#0C7EFF"/>
<path d="M24.6 142.8C26.5882 142.8 28.2 141.188 28.2 139.2C28.2 137.212 26.5882 135.6 24.6 135.6C22.6118 135.6 21 137.212 21 139.2C21 141.188 22.6118 142.8 24.6 142.8Z" fill="#0C7EFF"/>
<path d="M35.1 142.8C37.0882 142.8 38.7 141.188 38.7 139.2C38.7 137.212 37.0882 135.6 35.1 135.6C33.1118 135.6 31.5 137.212 31.5 139.2C31.5 141.188 33.1118 142.8 35.1 142.8Z" fill="#0C7EFF"/>
<path d="M45.6 142.8C47.5882 142.8 49.2 141.188 49.2 139.2C49.2 137.212 47.5882 135.6 45.6 135.6C43.6118 135.6 42 137.212 42 139.2C42 141.188 43.6118 142.8 45.6 142.8Z" fill="#0C7EFF"/>
<path d="M55.8 142.8C57.7882 142.8 59.4 141.188 59.4 139.2C59.4 137.212 57.7882 135.6 55.8 135.6C53.8118 135.6 52.2 137.212 52.2 139.2C52.2 141.188 53.8118 142.8 55.8 142.8Z" fill="#0C7EFF"/>
<path d="M66.3 142.8C68.2882 142.8 69.9 141.188 69.9 139.2C69.9 137.212 68.2882 135.6 66.3 135.6C64.3118 135.6 62.7 137.212 62.7 139.2C62.7 141.188 64.3118 142.8 66.3 142.8Z" fill="#0C7EFF"/>
<path d="M76.8 142.8C78.7882 142.8 80.4 141.188 80.4 139.2C80.4 137.212 78.7882 135.6 76.8 135.6C74.8118 135.6 73.2 137.212 73.2 139.2C73.2 141.188 74.8118 142.8 76.8 142.8Z" fill="#0C7EFF"/>
<path d="M87.3 142.8C89.2882 142.8 90.9 141.188 90.9 139.2C90.9 137.212 89.2882 135.6 87.3 135.6C85.3118 135.6 83.7 137.212 83.7 139.2C83.7 141.188 85.3118 142.8 87.3 142.8Z" fill="#0C7EFF"/>
<path d="M97.8 142.8C99.7882 142.8 101.4 141.188 101.4 139.2C101.4 137.212 99.7882 135.6 97.8 135.6C95.8118 135.6 94.2 137.212 94.2 139.2C94.2 141.188 95.8118 142.8 97.8 142.8Z" fill="#0C7EFF"/>
<path d="M108.3 142.8C110.288 142.8 111.9 141.188 111.9 139.2C111.9 137.212 110.288 135.6 108.3 135.6C106.312 135.6 104.7 137.212 104.7 139.2C104.7 141.188 106.312 142.8 108.3 142.8Z" fill="#0C7EFF"/>
<path d="M118.5 142.8C120.488 142.8 122.1 141.188 122.1 139.2C122.1 137.212 120.488 135.6 118.5 135.6C116.512 135.6 114.9 137.212 114.9 139.2C114.9 141.188 116.512 142.8 118.5 142.8Z" fill="#0C7EFF"/>
<path d="M129 142.8C130.988 142.8 132.6 141.188 132.6 139.2C132.6 137.212 130.988 135.6 129 135.6C127.012 135.6 125.4 137.212 125.4 139.2C125.4 141.188 127.012 142.8 129 142.8Z" fill="#0C7EFF"/>
<path d="M139.5 142.8C141.488 142.8 143.1 141.188 143.1 139.2C143.1 137.212 141.488 135.6 139.5 135.6C137.512 135.6 135.9 137.212 135.9 139.2C135.9 141.188 137.512 142.8 139.5 142.8Z" fill="#0C7EFF"/>
<path d="M150 142.8C151.988 142.8 153.6 141.188 153.6 139.2C153.6 137.212 151.988 135.6 150 135.6C148.012 135.6 146.4 137.212 146.4 139.2C146.4 141.188 148.012 142.8 150 142.8Z" fill="#0C7EFF"/>
<path d="M160.5 142.8C162.488 142.8 164.1 141.188 164.1 139.2C164.1 137.212 162.488 135.6 160.5 135.6C158.512 135.6 156.9 137.212 156.9 139.2C156.9 141.188 158.512 142.8 160.5 142.8Z" fill="#0C7EFF"/>
<path d="M171 142.8C172.988 142.8 174.6 141.188 174.6 139.2C174.6 137.212 172.988 135.6 171 135.6C169.012 135.6 167.4 137.212 167.4 139.2C167.4 141.188 169.012 142.8 171 142.8Z" fill="#0C7EFF"/>
<path d="M202.2 142.8C204.188 142.8 205.8 141.188 205.8 139.2C205.8 137.212 204.188 135.6 202.2 135.6C200.212 135.6 198.6 137.212 198.6 139.2C198.6 141.188 200.212 142.8 202.2 142.8Z" fill="#0C7EFF"/>
<path d="M212.7 142.8C214.688 142.8 216.3 141.188 216.3 139.2C216.3 137.212 214.688 135.6 212.7 135.6C210.712 135.6 209.1 137.212 209.1 139.2C209.1 141.188 210.712 142.8 212.7 142.8Z" fill="#0C7EFF"/>
<path d="M14.1 153.3C16.0882 153.3 17.7 151.688 17.7 149.7C17.7 147.712 16.0882 146.1 14.1 146.1C12.1118 146.1 10.5 147.712 10.5 149.7C10.5 151.688 12.1118 153.3 14.1 153.3Z" fill="#0C7EFF"/>
<path d="M24.6 153.3C26.5882 153.3 28.2 151.688 28.2 149.7C28.2 147.712 26.5882 146.1 24.6 146.1C22.6118 146.1 21 147.712 21 149.7C21 151.688 22.6118 153.3 24.6 153.3Z" fill="#0C7EFF"/>
<path d="M35.1 153.3C37.0882 153.3 38.7 151.688 38.7 149.7C38.7 147.712 37.0882 146.1 35.1 146.1C33.1118 146.1 31.5 147.712 31.5 149.7C31.5 151.688 33.1118 153.3 35.1 153.3Z" fill="#0C7EFF"/>
<path d="M45.6 153.3C47.5882 153.3 49.2 151.688 49.2 149.7C49.2 147.712 47.5882 146.1 45.6 146.1C43.6118 146.1 42 147.712 42 149.7C42 151.688 43.6118 153.3 45.6 153.3Z" fill="#0C7EFF"/>
<path d="M55.8 153.3C57.7882 153.3 59.4 151.688 59.4 149.7C59.4 147.712 57.7882 146.1 55.8 146.1C53.8118 146.1 52.2 147.712 52.2 149.7C52.2 151.688 53.8118 153.3 55.8 153.3Z" fill="#0C7EFF"/>
<path d="M66.3 153.3C68.2882 153.3 69.9 151.688 69.9 149.7C69.9 147.712 68.2882 146.1 66.3 146.1C64.3118 146.1 62.7 147.712 62.7 149.7C62.7 151.688 64.3118 153.3 66.3 153.3Z" fill="#0C7EFF"/>
<path d="M76.8 153.3C78.7882 153.3 80.4 151.688 80.4 149.7C80.4 147.712 78.7882 146.1 76.8 146.1C74.8118 146.1 73.2 147.712 73.2 149.7C73.2 151.688 74.8118 153.3 76.8 153.3Z" fill="#0C7EFF"/>
<path d="M87.3 153.3C89.2882 153.3 90.9 151.688 90.9 149.7C90.9 147.712 89.2882 146.1 87.3 146.1C85.3118 146.1 83.7 147.712 83.7 149.7C83.7 151.688 85.3118 153.3 87.3 153.3Z" fill="#0C7EFF"/>
<path d="M97.8 153.3C99.7882 153.3 101.4 151.688 101.4 149.7C101.4 147.712 99.7882 146.1 97.8 146.1C95.8118 146.1 94.2 147.712 94.2 149.7C94.2 151.688 95.8118 153.3 97.8 153.3Z" fill="#0C7EFF"/>
<path d="M108.3 153.3C110.288 153.3 111.9 151.688 111.9 149.7C111.9 147.712 110.288 146.1 108.3 146.1C106.312 146.1 104.7 147.712 104.7 149.7C104.7 151.688 106.312 153.3 108.3 153.3Z" fill="#0C7EFF"/>
<path d="M118.5 153.3C120.488 153.3 122.1 151.688 122.1 149.7C122.1 147.712 120.488 146.1 118.5 146.1C116.512 146.1 114.9 147.712 114.9 149.7C114.9 151.688 116.512 153.3 118.5 153.3Z" fill="#0C7EFF"/>
<path d="M129 153.3C130.988 153.3 132.6 151.688 132.6 149.7C132.6 147.712 130.988 146.1 129 146.1C127.012 146.1 125.4 147.712 125.4 149.7C125.4 151.688 127.012 153.3 129 153.3Z" fill="#0C7EFF"/>
<path d="M139.5 153.3C141.488 153.3 143.1 151.688 143.1 149.7C143.1 147.712 141.488 146.1 139.5 146.1C137.512 146.1 135.9 147.712 135.9 149.7C135.9 151.688 137.512 153.3 139.5 153.3Z" fill="#0C7EFF"/>
<path d="M150 153.3C151.988 153.3 153.6 151.688 153.6 149.7C153.6 147.712 151.988 146.1 150 146.1C148.012 146.1 146.4 147.712 146.4 149.7C146.4 151.688 148.012 153.3 150 153.3Z" fill="#0C7EFF"/>
<path d="M160.5 153.3C162.488 153.3 164.1 151.688 164.1 149.7C164.1 147.712 162.488 146.1 160.5 146.1C158.512 146.1 156.9 147.712 156.9 149.7C156.9 151.688 158.512 153.3 160.5 153.3Z" fill="#0C7EFF"/>
<path d="M171 153.3C172.988 153.3 174.6 151.688 174.6 149.7C174.6 147.712 172.988 146.1 171 146.1C169.012 146.1 167.4 147.712 167.4 149.7C167.4 151.688 169.012 153.3 171 153.3Z" fill="#0C7EFF"/>
<path d="M195.259 150.277C195.577 148.314 194.245 146.465 192.282 146.147C190.319 145.828 188.47 147.161 188.152 149.124C187.833 151.086 189.166 152.935 191.129 153.254C193.091 153.572 194.94 152.24 195.259 150.277Z" fill="#0C7EFF"/>
<path d="M202.2 153.3C204.188 153.3 205.8 151.688 205.8 149.7C205.8 147.712 204.188 146.1 202.2 146.1C200.212 146.1 198.6 147.712 198.6 149.7C198.6 151.688 200.212 153.3 202.2 153.3Z" fill="#0C7EFF"/>
<path d="M212.7 153.3C214.688 153.3 216.3 151.688 216.3 149.7C216.3 147.712 214.688 146.1 212.7 146.1C210.712 146.1 209.1 147.712 209.1 149.7C209.1 151.688 210.712 153.3 212.7 153.3Z" fill="#0C7EFF"/>
<path d="M223.2 153.3C225.188 153.3 226.8 151.688 226.8 149.7C226.8 147.712 225.188 146.1 223.2 146.1C221.212 146.1 219.6 147.712 219.6 149.7C219.6 151.688 221.212 153.3 223.2 153.3Z" fill="#0C7EFF"/>
<path d="M3.6 163.8C5.58822 163.8 7.2 162.188 7.2 160.2C7.2 158.212 5.58822 156.6 3.6 156.6C1.61177 156.6 0 158.212 0 160.2C0 162.188 1.61177 163.8 3.6 163.8Z" fill="#0C7EFF"/>
<path d="M14.1 163.8C16.0882 163.8 17.7 162.188 17.7 160.2C17.7 158.212 16.0882 156.6 14.1 156.6C12.1118 156.6 10.5 158.212 10.5 160.2C10.5 162.188 12.1118 163.8 14.1 163.8Z" fill="#0C7EFF"/>
<path d="M24.6 163.8C26.5882 163.8 28.2 162.188 28.2 160.2C28.2 158.212 26.5882 156.6 24.6 156.6C22.6118 156.6 21 158.212 21 160.2C21 162.188 22.6118 163.8 24.6 163.8Z" fill="#0C7EFF"/>
<path d="M35.1 163.8C37.0882 163.8 38.7 162.188 38.7 160.2C38.7 158.212 37.0882 156.6 35.1 156.6C33.1118 156.6 31.5 158.212 31.5 160.2C31.5 162.188 33.1118 163.8 35.1 163.8Z" fill="#0C7EFF"/>
<path d="M45.6 163.8C47.5882 163.8 49.2 162.188 49.2 160.2C49.2 158.212 47.5882 156.6 45.6 156.6C43.6118 156.6 42 158.212 42 160.2C42 162.188 43.6118 163.8 45.6 163.8Z" fill="#0C7EFF"/>
<path d="M55.8 163.8C57.7882 163.8 59.4 162.188 59.4 160.2C59.4 158.212 57.7882 156.6 55.8 156.6C53.8118 156.6 52.2 158.212 52.2 160.2C52.2 162.188 53.8118 163.8 55.8 163.8Z" fill="#0C7EFF"/>
<path d="M66.3 163.8C68.2882 163.8 69.9 162.188 69.9 160.2C69.9 158.212 68.2882 156.6 66.3 156.6C64.3118 156.6 62.7 158.212 62.7 160.2C62.7 162.188 64.3118 163.8 66.3 163.8Z" fill="#0C7EFF"/>
<path d="M76.8 163.8C78.7882 163.8 80.4 162.188 80.4 160.2C80.4 158.212 78.7882 156.6 76.8 156.6C74.8118 156.6 73.2 158.212 73.2 160.2C73.2 162.188 74.8118 163.8 76.8 163.8Z" fill="#0C7EFF"/>
<path d="M87.3 163.8C89.2882 163.8 90.9 162.188 90.9 160.2C90.9 158.212 89.2882 156.6 87.3 156.6C85.3118 156.6 83.7 158.212 83.7 160.2C83.7 162.188 85.3118 163.8 87.3 163.8Z" fill="#0C7EFF"/>
<path d="M97.8 163.8C99.7882 163.8 101.4 162.188 101.4 160.2C101.4 158.212 99.7882 156.6 97.8 156.6C95.8118 156.6 94.2 158.212 94.2 160.2C94.2 162.188 95.8118 163.8 97.8 163.8Z" fill="#0C7EFF"/>
<path d="M108.3 163.8C110.288 163.8 111.9 162.188 111.9 160.2C111.9 158.212 110.288 156.6 108.3 156.6C106.312 156.6 104.7 158.212 104.7 160.2C104.7 162.188 106.312 163.8 108.3 163.8Z" fill="#0C7EFF"/>
<path d="M118.5 163.8C120.488 163.8 122.1 162.188 122.1 160.2C122.1 158.212 120.488 156.6 118.5 156.6C116.512 156.6 114.9 158.212 114.9 160.2C114.9 162.188 116.512 163.8 118.5 163.8Z" fill="#0C7EFF"/>
<path d="M129 163.8C130.988 163.8 132.6 162.188 132.6 160.2C132.6 158.212 130.988 156.6 129 156.6C127.012 156.6 125.4 158.212 125.4 160.2C125.4 162.188 127.012 163.8 129 163.8Z" fill="#0C7EFF"/>
<path d="M139.5 163.8C141.488 163.8 143.1 162.188 143.1 160.2C143.1 158.212 141.488 156.6 139.5 156.6C137.512 156.6 135.9 158.212 135.9 160.2C135.9 162.188 137.512 163.8 139.5 163.8Z" fill="#0C7EFF"/>
<path d="M150 163.8C151.988 163.8 153.6 162.188 153.6 160.2C153.6 158.212 151.988 156.6 150 156.6C148.012 156.6 146.4 158.212 146.4 160.2C146.4 162.188 148.012 163.8 150 163.8Z" fill="#0C7EFF"/>
<path d="M160.5 163.8C162.488 163.8 164.1 162.188 164.1 160.2C164.1 158.212 162.488 156.6 160.5 156.6C158.512 156.6 156.9 158.212 156.9 160.2C156.9 162.188 158.512 163.8 160.5 163.8Z" fill="#0C7EFF"/>
<path d="M171 163.8C172.988 163.8 174.6 162.188 174.6 160.2C174.6 158.212 172.988 156.6 171 156.6C169.012 156.6 167.4 158.212 167.4 160.2C167.4 162.188 169.012 163.8 171 163.8Z" fill="#0C7EFF"/>
<path d="M181.5 163.8C183.488 163.8 185.1 162.188 185.1 160.2C185.1 158.212 183.488 156.6 181.5 156.6C179.512 156.6 177.9 158.212 177.9 160.2C177.9 162.188 179.512 163.8 181.5 163.8Z" fill="#0C7EFF"/>
<path d="M14.1 174.3C16.0882 174.3 17.7 172.688 17.7 170.7C17.7 168.712 16.0882 167.1 14.1 167.1C12.1118 167.1 10.5 168.712 10.5 170.7C10.5 172.688 12.1118 174.3 14.1 174.3Z" fill="#0C7EFF"/>
<path d="M24.6 174.3C26.5882 174.3 28.2 172.688 28.2 170.7C28.2 168.712 26.5882 167.1 24.6 167.1C22.6118 167.1 21 168.712 21 170.7C21 172.688 22.6118 174.3 24.6 174.3Z" fill="#0C7EFF"/>
<path d="M35.1 174.3C37.0882 174.3 38.7 172.688 38.7 170.7C38.7 168.712 37.0882 167.1 35.1 167.1C33.1118 167.1 31.5 168.712 31.5 170.7C31.5 172.688 33.1118 174.3 35.1 174.3Z" fill="#0C7EFF"/>
<path d="M45.6 174.3C47.5882 174.3 49.2 172.688 49.2 170.7C49.2 168.712 47.5882 167.1 45.6 167.1C43.6118 167.1 42 168.712 42 170.7C42 172.688 43.6118 174.3 45.6 174.3Z" fill="#0C7EFF"/>
<path d="M55.8 174.3C57.7882 174.3 59.4 172.688 59.4 170.7C59.4 168.712 57.7882 167.1 55.8 167.1C53.8118 167.1 52.2 168.712 52.2 170.7C52.2 172.688 53.8118 174.3 55.8 174.3Z" fill="#0C7EFF"/>
<path d="M66.3 174.3C68.2882 174.3 69.9 172.688 69.9 170.7C69.9 168.712 68.2882 167.1 66.3 167.1C64.3118 167.1 62.7 168.712 62.7 170.7C62.7 172.688 64.3118 174.3 66.3 174.3Z" fill="#0C7EFF"/>
<path d="M76.8 174.3C78.7882 174.3 80.4 172.688 80.4 170.7C80.4 168.712 78.7882 167.1 76.8 167.1C74.8118 167.1 73.2 168.712 73.2 170.7C73.2 172.688 74.8118 174.3 76.8 174.3Z" fill="#0C7EFF"/>
<path d="M87.3 174.3C89.2882 174.3 90.9 172.688 90.9 170.7C90.9 168.712 89.2882 167.1 87.3 167.1C85.3118 167.1 83.7 168.712 83.7 170.7C83.7 172.688 85.3118 174.3 87.3 174.3Z" fill="#0C7EFF"/>
<path d="M97.8 174.3C99.7882 174.3 101.4 172.688 101.4 170.7C101.4 168.712 99.7882 167.1 97.8 167.1C95.8118 167.1 94.2 168.712 94.2 170.7C94.2 172.688 95.8118 174.3 97.8 174.3Z" fill="#0C7EFF"/>
<path d="M108.3 174.3C110.288 174.3 111.9 172.688 111.9 170.7C111.9 168.712 110.288 167.1 108.3 167.1C106.312 167.1 104.7 168.712 104.7 170.7C104.7 172.688 106.312 174.3 108.3 174.3Z" fill="#0C7EFF"/>
<path d="M118.5 174.3C120.488 174.3 122.1 172.688 122.1 170.7C122.1 168.712 120.488 167.1 118.5 167.1C116.512 167.1 114.9 168.712 114.9 170.7C114.9 172.688 116.512 174.3 118.5 174.3Z" fill="#0C7EFF"/>
<path d="M129 174.3C130.988 174.3 132.6 172.688 132.6 170.7C132.6 168.712 130.988 167.1 129 167.1C127.012 167.1 125.4 168.712 125.4 170.7C125.4 172.688 127.012 174.3 129 174.3Z" fill="#0C7EFF"/>
<path d="M139.5 174.3C141.488 174.3 143.1 172.688 143.1 170.7C143.1 168.712 141.488 167.1 139.5 167.1C137.512 167.1 135.9 168.712 135.9 170.7C135.9 172.688 137.512 174.3 139.5 174.3Z" fill="#0C7EFF"/>
<path d="M150 174.3C151.988 174.3 153.6 172.688 153.6 170.7C153.6 168.712 151.988 167.1 150 167.1C148.012 167.1 146.4 168.712 146.4 170.7C146.4 172.688 148.012 174.3 150 174.3Z" fill="#0C7EFF"/>
<path d="M195.259 171.277C195.578 169.315 194.245 167.466 192.282 167.147C190.32 166.828 188.47 168.161 188.152 170.124C187.833 172.086 189.166 173.936 191.129 174.254C193.091 174.573 194.941 173.24 195.259 171.277Z" fill="#0C7EFF"/>
<path d="M202.2 174.3C204.188 174.3 205.8 172.688 205.8 170.7C205.8 168.712 204.188 167.1 202.2 167.1C200.212 167.1 198.6 168.712 198.6 170.7C198.6 172.688 200.212 174.3 202.2 174.3Z" fill="#0C7EFF"/>
<path d="M212.7 174.3C214.688 174.3 216.3 172.688 216.3 170.7C216.3 168.712 214.688 167.1 212.7 167.1C210.712 167.1 209.1 168.712 209.1 170.7C209.1 172.688 210.712 174.3 212.7 174.3Z" fill="#0C7EFF"/>
<path d="M233.7 174.3C235.688 174.3 237.3 172.688 237.3 170.7C237.3 168.712 235.688 167.1 233.7 167.1C231.712 167.1 230.1 168.712 230.1 170.7C230.1 172.688 231.712 174.3 233.7 174.3Z" fill="#0C7EFF"/>
<path d="M24.6 184.8C26.5882 184.8 28.2 183.188 28.2 181.2C28.2 179.212 26.5882 177.6 24.6 177.6C22.6118 177.6 21 179.212 21 181.2C21 183.188 22.6118 184.8 24.6 184.8Z" fill="#0C7EFF"/>
<path d="M35.1 184.8C37.0882 184.8 38.7 183.188 38.7 181.2C38.7 179.212 37.0882 177.6 35.1 177.6C33.1118 177.6 31.5 179.212 31.5 181.2C31.5 183.188 33.1118 184.8 35.1 184.8Z" fill="#0C7EFF"/>
<path d="M45.6 184.8C47.5882 184.8 49.2 183.188 49.2 181.2C49.2 179.212 47.5882 177.6 45.6 177.6C43.6118 177.6 42 179.212 42 181.2C42 183.188 43.6118 184.8 45.6 184.8Z" fill="#0C7EFF"/>
<path d="M55.8 184.8C57.7882 184.8 59.4 183.188 59.4 181.2C59.4 179.212 57.7882 177.6 55.8 177.6C53.8118 177.6 52.2 179.212 52.2 181.2C52.2 183.188 53.8118 184.8 55.8 184.8Z" fill="#0C7EFF"/>
<path d="M66.3 184.8C68.2882 184.8 69.9 183.188 69.9 181.2C69.9 179.212 68.2882 177.6 66.3 177.6C64.3118 177.6 62.7 179.212 62.7 181.2C62.7 183.188 64.3118 184.8 66.3 184.8Z" fill="#0C7EFF"/>
<path d="M76.8 184.8C78.7882 184.8 80.4 183.188 80.4 181.2C80.4 179.212 78.7882 177.6 76.8 177.6C74.8118 177.6 73.2 179.212 73.2 181.2C73.2 183.188 74.8118 184.8 76.8 184.8Z" fill="#0C7EFF"/>
<path d="M87.3 184.8C89.2882 184.8 90.9 183.188 90.9 181.2C90.9 179.212 89.2882 177.6 87.3 177.6C85.3118 177.6 83.7 179.212 83.7 181.2C83.7 183.188 85.3118 184.8 87.3 184.8Z" fill="#0C7EFF"/>
<path d="M97.8 184.8C99.7882 184.8 101.4 183.188 101.4 181.2C101.4 179.212 99.7882 177.6 97.8 177.6C95.8118 177.6 94.2 179.212 94.2 181.2C94.2 183.188 95.8118 184.8 97.8 184.8Z" fill="#0C7EFF"/>
<path d="M108.3 184.8C110.288 184.8 111.9 183.188 111.9 181.2C111.9 179.212 110.288 177.6 108.3 177.6C106.312 177.6 104.7 179.212 104.7 181.2C104.7 183.188 106.312 184.8 108.3 184.8Z" fill="#0C7EFF"/>
<path d="M118.5 184.8C120.488 184.8 122.1 183.188 122.1 181.2C122.1 179.212 120.488 177.6 118.5 177.6C116.512 177.6 114.9 179.212 114.9 181.2C114.9 183.188 116.512 184.8 118.5 184.8Z" fill="#0C7EFF"/>
<path d="M129 184.8C130.988 184.8 132.6 183.188 132.6 181.2C132.6 179.212 130.988 177.6 129 177.6C127.012 177.6 125.4 179.212 125.4 181.2C125.4 183.188 127.012 184.8 129 184.8Z" fill="#0C7EFF"/>
<path d="M139.5 184.8C141.488 184.8 143.1 183.188 143.1 181.2C143.1 179.212 141.488 177.6 139.5 177.6C137.512 177.6 135.9 179.212 135.9 181.2C135.9 183.188 137.512 184.8 139.5 184.8Z" fill="#0C7EFF"/>
<path d="M195.259 181.778C195.578 179.815 194.245 177.966 192.282 177.647C190.32 177.329 188.471 178.661 188.152 180.624C187.834 182.587 189.166 184.436 191.129 184.754C193.092 185.073 194.941 183.74 195.259 181.778Z" fill="#0C7EFF"/>
<path d="M202.2 184.8C204.188 184.8 205.8 183.188 205.8 181.2C205.8 179.212 204.188 177.6 202.2 177.6C200.212 177.6 198.6 179.212 198.6 181.2C198.6 183.188 200.212 184.8 202.2 184.8Z" fill="#0C7EFF"/>
<path d="M212.7 184.8C214.688 184.8 216.3 183.188 216.3 181.2C216.3 179.212 214.688 177.6 212.7 177.6C210.712 177.6 209.1 179.212 209.1 181.2C209.1 183.188 210.712 184.8 212.7 184.8Z" fill="#0C7EFF"/>
<path d="M223.2 184.8C225.188 184.8 226.8 183.188 226.8 181.2C226.8 179.212 225.188 177.6 223.2 177.6C221.212 177.6 219.6 179.212 219.6 181.2C219.6 183.188 221.212 184.8 223.2 184.8Z" fill="#0C7EFF"/>
<path d="M233.7 184.8C235.688 184.8 237.3 183.188 237.3 181.2C237.3 179.212 235.688 177.6 233.7 177.6C231.712 177.6 230.1 179.212 230.1 181.2C230.1 183.188 231.712 184.8 233.7 184.8Z" fill="#0C7EFF"/>
<path d="M244.2 184.8C246.188 184.8 247.8 183.188 247.8 181.2C247.8 179.212 246.188 177.6 244.2 177.6C242.212 177.6 240.6 179.212 240.6 181.2C240.6 183.188 242.212 184.8 244.2 184.8Z" fill="#0C7EFF"/>
<path d="M24.6 195.3C26.5882 195.3 28.2 193.688 28.2 191.7C28.2 189.712 26.5882 188.1 24.6 188.1C22.6118 188.1 21 189.712 21 191.7C21 193.688 22.6118 195.3 24.6 195.3Z" fill="#0C7EFF"/>
<path d="M35.1 195.3C37.0882 195.3 38.7 193.688 38.7 191.7C38.7 189.712 37.0882 188.1 35.1 188.1C33.1118 188.1 31.5 189.712 31.5 191.7C31.5 193.688 33.1118 195.3 35.1 195.3Z" fill="#0C7EFF"/>
<path d="M45.6 195.3C47.5882 195.3 49.2 193.688 49.2 191.7C49.2 189.712 47.5882 188.1 45.6 188.1C43.6118 188.1 42 189.712 42 191.7C42 193.688 43.6118 195.3 45.6 195.3Z" fill="#0C7EFF"/>
<path d="M55.8 195.3C57.7882 195.3 59.4 193.688 59.4 191.7C59.4 189.712 57.7882 188.1 55.8 188.1C53.8118 188.1 52.2 189.712 52.2 191.7C52.2 193.688 53.8118 195.3 55.8 195.3Z" fill="#0C7EFF"/>
<path d="M66.3 195.3C68.2882 195.3 69.9 193.688 69.9 191.7C69.9 189.712 68.2882 188.1 66.3 188.1C64.3118 188.1 62.7 189.712 62.7 191.7C62.7 193.688 64.3118 195.3 66.3 195.3Z" fill="#0C7EFF"/>
<path d="M76.8 195.3C78.7882 195.3 80.4 193.688 80.4 191.7C80.4 189.712 78.7882 188.1 76.8 188.1C74.8118 188.1 73.2 189.712 73.2 191.7C73.2 193.688 74.8118 195.3 76.8 195.3Z" fill="#0C7EFF"/>
<path d="M87.3 195.3C89.2882 195.3 90.9 193.688 90.9 191.7C90.9 189.712 89.2882 188.1 87.3 188.1C85.3118 188.1 83.7 189.712 83.7 191.7C83.7 193.688 85.3118 195.3 87.3 195.3Z" fill="#0C7EFF"/>
<path d="M97.8 195.3C99.7882 195.3 101.4 193.688 101.4 191.7C101.4 189.712 99.7882 188.1 97.8 188.1C95.8118 188.1 94.2 189.712 94.2 191.7C94.2 193.688 95.8118 195.3 97.8 195.3Z" fill="#0C7EFF"/>
<path d="M108.3 195.3C110.288 195.3 111.9 193.688 111.9 191.7C111.9 189.712 110.288 188.1 108.3 188.1C106.312 188.1 104.7 189.712 104.7 191.7C104.7 193.688 106.312 195.3 108.3 195.3Z" fill="#0C7EFF"/>
<path d="M118.5 195.3C120.488 195.3 122.1 193.688 122.1 191.7C122.1 189.712 120.488 188.1 118.5 188.1C116.512 188.1 114.9 189.712 114.9 191.7C114.9 193.688 116.512 195.3 118.5 195.3Z" fill="#0C7EFF"/>
<path d="M129 195.3C130.988 195.3 132.6 193.688 132.6 191.7C132.6 189.712 130.988 188.1 129 188.1C127.012 188.1 125.4 189.712 125.4 191.7C125.4 193.688 127.012 195.3 129 195.3Z" fill="#0C7EFF"/>
<path d="M139.5 195.3C141.488 195.3 143.1 193.688 143.1 191.7C143.1 189.712 141.488 188.1 139.5 188.1C137.512 188.1 135.9 189.712 135.9 191.7C135.9 193.688 137.512 195.3 139.5 195.3Z" fill="#0C7EFF"/>
<path d="M191.7 195.3C193.688 195.3 195.3 193.688 195.3 191.7C195.3 189.712 193.688 188.1 191.7 188.1C189.712 188.1 188.1 189.712 188.1 191.7C188.1 193.688 189.712 195.3 191.7 195.3Z" fill="#0C7EFF"/>
<path d="M202.2 195.3C204.188 195.3 205.8 193.688 205.8 191.7C205.8 189.712 204.188 188.1 202.2 188.1C200.212 188.1 198.6 189.712 198.6 191.7C198.6 193.688 200.212 195.3 202.2 195.3Z" fill="#0C7EFF"/>
<path d="M212.7 195.3C214.688 195.3 216.3 193.688 216.3 191.7C216.3 189.712 214.688 188.1 212.7 188.1C210.712 188.1 209.1 189.712 209.1 191.7C209.1 193.688 210.712 195.3 212.7 195.3Z" fill="#0C7EFF"/>
<path d="M223.2 195.3C225.188 195.3 226.8 193.688 226.8 191.7C226.8 189.712 225.188 188.1 223.2 188.1C221.212 188.1 219.6 189.712 219.6 191.7C219.6 193.688 221.212 195.3 223.2 195.3Z" fill="#0C7EFF"/>
<path d="M233.7 195.3C235.688 195.3 237.3 193.688 237.3 191.7C237.3 189.712 235.688 188.1 233.7 188.1C231.712 188.1 230.1 189.712 230.1 191.7C230.1 193.688 231.712 195.3 233.7 195.3Z" fill="#0C7EFF"/>
<path d="M244.2 195.3C246.188 195.3 247.8 193.688 247.8 191.7C247.8 189.712 246.188 188.1 244.2 188.1C242.212 188.1 240.6 189.712 240.6 191.7C240.6 193.688 242.212 195.3 244.2 195.3Z" fill="#0C7EFF"/>
<path d="M254.4 195.3C256.388 195.3 258 193.688 258 191.7C258 189.712 256.388 188.1 254.4 188.1C252.412 188.1 250.8 189.712 250.8 191.7C250.8 193.688 252.412 195.3 254.4 195.3Z" fill="#0C7EFF"/>
<path d="M264.9 195.3C266.888 195.3 268.5 193.688 268.5 191.7C268.5 189.712 266.888 188.1 264.9 188.1C262.912 188.1 261.3 189.712 261.3 191.7C261.3 193.688 262.912 195.3 264.9 195.3Z" fill="#0C7EFF"/>
<path d="M24.6 205.8C26.5882 205.8 28.2 204.188 28.2 202.2C28.2 200.212 26.5882 198.6 24.6 198.6C22.6118 198.6 21 200.212 21 202.2C21 204.188 22.6118 205.8 24.6 205.8Z" fill="#0C7EFF"/>
<path d="M35.1 205.8C37.0882 205.8 38.7 204.188 38.7 202.2C38.7 200.212 37.0882 198.6 35.1 198.6C33.1118 198.6 31.5 200.212 31.5 202.2C31.5 204.188 33.1118 205.8 35.1 205.8Z" fill="#0C7EFF"/>
<path d="M45.6 205.8C47.5882 205.8 49.2 204.188 49.2 202.2C49.2 200.212 47.5882 198.6 45.6 198.6C43.6118 198.6 42 200.212 42 202.2C42 204.188 43.6118 205.8 45.6 205.8Z" fill="#0C7EFF"/>
<path d="M55.8 205.8C57.7882 205.8 59.4 204.188 59.4 202.2C59.4 200.212 57.7882 198.6 55.8 198.6C53.8118 198.6 52.2 200.212 52.2 202.2C52.2 204.188 53.8118 205.8 55.8 205.8Z" fill="#0C7EFF"/>
<path d="M66.3 205.8C68.2882 205.8 69.9 204.188 69.9 202.2C69.9 200.212 68.2882 198.6 66.3 198.6C64.3118 198.6 62.7 200.212 62.7 202.2C62.7 204.188 64.3118 205.8 66.3 205.8Z" fill="#0C7EFF"/>
<path d="M76.8 205.8C78.7882 205.8 80.4 204.188 80.4 202.2C80.4 200.212 78.7882 198.6 76.8 198.6C74.8118 198.6 73.2 200.212 73.2 202.2C73.2 204.188 74.8118 205.8 76.8 205.8Z" fill="#0C7EFF"/>
<path d="M87.3 205.8C89.2882 205.8 90.9 204.188 90.9 202.2C90.9 200.212 89.2882 198.6 87.3 198.6C85.3118 198.6 83.7 200.212 83.7 202.2C83.7 204.188 85.3118 205.8 87.3 205.8Z" fill="#0C7EFF"/>
<path d="M97.8 205.8C99.7882 205.8 101.4 204.188 101.4 202.2C101.4 200.212 99.7882 198.6 97.8 198.6C95.8118 198.6 94.2 200.212 94.2 202.2C94.2 204.188 95.8118 205.8 97.8 205.8Z" fill="#0C7EFF"/>
<path d="M108.3 205.8C110.288 205.8 111.9 204.188 111.9 202.2C111.9 200.212 110.288 198.6 108.3 198.6C106.312 198.6 104.7 200.212 104.7 202.2C104.7 204.188 106.312 205.8 108.3 205.8Z" fill="#0C7EFF"/>
<path d="M118.5 205.8C120.488 205.8 122.1 204.188 122.1 202.2C122.1 200.212 120.488 198.6 118.5 198.6C116.512 198.6 114.9 200.212 114.9 202.2C114.9 204.188 116.512 205.8 118.5 205.8Z" fill="#0C7EFF"/>
<path d="M129 205.8C130.988 205.8 132.6 204.188 132.6 202.2C132.6 200.212 130.988 198.6 129 198.6C127.012 198.6 125.4 200.212 125.4 202.2C125.4 204.188 127.012 205.8 129 205.8Z" fill="#0C7EFF"/>
<path d="M139.5 205.8C141.488 205.8 143.1 204.188 143.1 202.2C143.1 200.212 141.488 198.6 139.5 198.6C137.512 198.6 135.9 200.212 135.9 202.2C135.9 204.188 137.512 205.8 139.5 205.8Z" fill="#0C7EFF"/>
<path d="M150 205.8C151.988 205.8 153.6 204.188 153.6 202.2C153.6 200.212 151.988 198.6 150 198.6C148.012 198.6 146.4 200.212 146.4 202.2C146.4 204.188 148.012 205.8 150 205.8Z" fill="#0C7EFF"/>
<path d="M160.5 205.8C162.488 205.8 164.1 204.188 164.1 202.2C164.1 200.212 162.488 198.6 160.5 198.6C158.512 198.6 156.9 200.212 156.9 202.2C156.9 204.188 158.512 205.8 160.5 205.8Z" fill="#0C7EFF"/>
<path d="M202.2 205.8C204.188 205.8 205.8 204.188 205.8 202.2C205.8 200.212 204.188 198.6 202.2 198.6C200.212 198.6 198.6 200.212 198.6 202.2C198.6 204.188 200.212 205.8 202.2 205.8Z" fill="#0C7EFF"/>
<path d="M212.7 205.8C214.688 205.8 216.3 204.188 216.3 202.2C216.3 200.212 214.688 198.6 212.7 198.6C210.712 198.6 209.1 200.212 209.1 202.2C209.1 204.188 210.712 205.8 212.7 205.8Z" fill="#0C7EFF"/>
<path d="M223.2 205.8C225.188 205.8 226.8 204.188 226.8 202.2C226.8 200.212 225.188 198.6 223.2 198.6C221.212 198.6 219.6 200.212 219.6 202.2C219.6 204.188 221.212 205.8 223.2 205.8Z" fill="#0C7EFF"/>
<path d="M233.7 205.8C235.688 205.8 237.3 204.188 237.3 202.2C237.3 200.212 235.688 198.6 233.7 198.6C231.712 198.6 230.1 200.212 230.1 202.2C230.1 204.188 231.712 205.8 233.7 205.8Z" fill="#0C7EFF"/>
<path d="M244.2 205.8C246.188 205.8 247.8 204.188 247.8 202.2C247.8 200.212 246.188 198.6 244.2 198.6C242.212 198.6 240.6 200.212 240.6 202.2C240.6 204.188 242.212 205.8 244.2 205.8Z" fill="#0C7EFF"/>
<path d="M254.4 205.8C256.388 205.8 258 204.188 258 202.2C258 200.212 256.388 198.6 254.4 198.6C252.412 198.6 250.8 200.212 250.8 202.2C250.8 204.188 252.412 205.8 254.4 205.8Z" fill="#0C7EFF"/>
<path d="M264.9 205.8C266.888 205.8 268.5 204.188 268.5 202.2C268.5 200.212 266.888 198.6 264.9 198.6C262.912 198.6 261.3 200.212 261.3 202.2C261.3 204.188 262.912 205.8 264.9 205.8Z" fill="#0C7EFF"/>
<path d="M275.4 205.8C277.388 205.8 279 204.188 279 202.2C279 200.212 277.388 198.6 275.4 198.6C273.412 198.6 271.8 200.212 271.8 202.2C271.8 204.188 273.412 205.8 275.4 205.8Z" fill="#0C7EFF"/>
<path d="M24.6 216C26.5882 216 28.2 214.388 28.2 212.4C28.2 210.412 26.5882 208.8 24.6 208.8C22.6118 208.8 21 210.412 21 212.4C21 214.388 22.6118 216 24.6 216Z" fill="#0C7EFF"/>
<path d="M35.1 216C37.0882 216 38.7 214.388 38.7 212.4C38.7 210.412 37.0882 208.8 35.1 208.8C33.1118 208.8 31.5 210.412 31.5 212.4C31.5 214.388 33.1118 216 35.1 216Z" fill="#0C7EFF"/>
<path d="M45.6 216C47.5882 216 49.2 214.388 49.2 212.4C49.2 210.412 47.5882 208.8 45.6 208.8C43.6118 208.8 42 210.412 42 212.4C42 214.388 43.6118 216 45.6 216Z" fill="#0C7EFF"/>
<path d="M55.8 216C57.7882 216 59.4 214.388 59.4 212.4C59.4 210.412 57.7882 208.8 55.8 208.8C53.8118 208.8 52.2 210.412 52.2 212.4C52.2 214.388 53.8118 216 55.8 216Z" fill="#0C7EFF"/>
<path d="M66.3 216C68.2882 216 69.9 214.388 69.9 212.4C69.9 210.412 68.2882 208.8 66.3 208.8C64.3118 208.8 62.7 210.412 62.7 212.4C62.7 214.388 64.3118 216 66.3 216Z" fill="#0C7EFF"/>
<path d="M76.8 216C78.7882 216 80.4 214.388 80.4 212.4C80.4 210.412 78.7882 208.8 76.8 208.8C74.8118 208.8 73.2 210.412 73.2 212.4C73.2 214.388 74.8118 216 76.8 216Z" fill="#0C7EFF"/>
<path d="M87.3 216C89.2882 216 90.9 214.388 90.9 212.4C90.9 210.412 89.2882 208.8 87.3 208.8C85.3118 208.8 83.7 210.412 83.7 212.4C83.7 214.388 85.3118 216 87.3 216Z" fill="#0C7EFF"/>
<path d="M97.8 216C99.7882 216 101.4 214.388 101.4 212.4C101.4 210.412 99.7882 208.8 97.8 208.8C95.8118 208.8 94.2 210.412 94.2 212.4C94.2 214.388 95.8118 216 97.8 216Z" fill="#0C7EFF"/>
<path d="M108.3 216C110.288 216 111.9 214.388 111.9 212.4C111.9 210.412 110.288 208.8 108.3 208.8C106.312 208.8 104.7 210.412 104.7 212.4C104.7 214.388 106.312 216 108.3 216Z" fill="#0C7EFF"/>
<path d="M118.5 216C120.488 216 122.1 214.388 122.1 212.4C122.1 210.412 120.488 208.8 118.5 208.8C116.512 208.8 114.9 210.412 114.9 212.4C114.9 214.388 116.512 216 118.5 216Z" fill="#0C7EFF"/>
<path d="M129 216C130.988 216 132.6 214.388 132.6 212.4C132.6 210.412 130.988 208.8 129 208.8C127.012 208.8 125.4 210.412 125.4 212.4C125.4 214.388 127.012 216 129 216Z" fill="#0C7EFF"/>
<path d="M139.5 216C141.488 216 143.1 214.388 143.1 212.4C143.1 210.412 141.488 208.8 139.5 208.8C137.512 208.8 135.9 210.412 135.9 212.4C135.9 214.388 137.512 216 139.5 216Z" fill="#0C7EFF"/>
<path d="M150 216C151.988 216 153.6 214.388 153.6 212.4C153.6 210.412 151.988 208.8 150 208.8C148.012 208.8 146.4 210.412 146.4 212.4C146.4 214.388 148.012 216 150 216Z" fill="#0C7EFF"/>
<path d="M160.5 216C162.488 216 164.1 214.388 164.1 212.4C164.1 210.412 162.488 208.8 160.5 208.8C158.512 208.8 156.9 210.412 156.9 212.4C156.9 214.388 158.512 216 160.5 216Z" fill="#0C7EFF"/>
<path d="M171 216C172.988 216 174.6 214.388 174.6 212.4C174.6 210.412 172.988 208.8 171 208.8C169.012 208.8 167.4 210.412 167.4 212.4C167.4 214.388 169.012 216 171 216Z" fill="#0C7EFF"/>
<path d="M181.5 216C183.488 216 185.1 214.388 185.1 212.4C185.1 210.412 183.488 208.8 181.5 208.8C179.512 208.8 177.9 210.412 177.9 212.4C177.9 214.388 179.512 216 181.5 216Z" fill="#0C7EFF"/>
<path d="M202.2 216C204.188 216 205.8 214.388 205.8 212.4C205.8 210.412 204.188 208.8 202.2 208.8C200.212 208.8 198.6 210.412 198.6 212.4C198.6 214.388 200.212 216 202.2 216Z" fill="#0C7EFF"/>
<path d="M212.7 216C214.688 216 216.3 214.388 216.3 212.4C216.3 210.412 214.688 208.8 212.7 208.8C210.712 208.8 209.1 210.412 209.1 212.4C209.1 214.388 210.712 216 212.7 216Z" fill="#0C7EFF"/>
<path d="M223.2 216C225.188 216 226.8 214.388 226.8 212.4C226.8 210.412 225.188 208.8 223.2 208.8C221.212 208.8 219.6 210.412 219.6 212.4C219.6 214.388 221.212 216 223.2 216Z" fill="#0C7EFF"/>
<path d="M233.7 216C235.688 216 237.3 214.388 237.3 212.4C237.3 210.412 235.688 208.8 233.7 208.8C231.712 208.8 230.1 210.412 230.1 212.4C230.1 214.388 231.712 216 233.7 216Z" fill="#0C7EFF"/>
<path d="M244.2 216C246.188 216 247.8 214.388 247.8 212.4C247.8 210.412 246.188 208.8 244.2 208.8C242.212 208.8 240.6 210.412 240.6 212.4C240.6 214.388 242.212 216 244.2 216Z" fill="#0C7EFF"/>
<path d="M254.4 216C256.388 216 258 214.388 258 212.4C258 210.412 256.388 208.8 254.4 208.8C252.412 208.8 250.8 210.412 250.8 212.4C250.8 214.388 252.412 216 254.4 216Z" fill="#0C7EFF"/>
<path d="M264.9 216C266.888 216 268.5 214.388 268.5 212.4C268.5 210.412 266.888 208.8 264.9 208.8C262.912 208.8 261.3 210.412 261.3 212.4C261.3 214.388 262.912 216 264.9 216Z" fill="#0C7EFF"/>
<path d="M275.4 216C277.388 216 279 214.388 279 212.4C279 210.412 277.388 208.8 275.4 208.8C273.412 208.8 271.8 210.412 271.8 212.4C271.8 214.388 273.412 216 275.4 216Z" fill="#0C7EFF"/>
<path d="M285.9 216C287.888 216 289.5 214.388 289.5 212.4C289.5 210.412 287.888 208.8 285.9 208.8C283.912 208.8 282.3 210.412 282.3 212.4C282.3 214.388 283.912 216 285.9 216Z" fill="#0C7EFF"/>
<path d="M35.1 226.5C37.0882 226.5 38.7 224.888 38.7 222.9C38.7 220.912 37.0882 219.3 35.1 219.3C33.1118 219.3 31.5 220.912 31.5 222.9C31.5 224.888 33.1118 226.5 35.1 226.5Z" fill="#0C7EFF"/>
<path d="M45.6 226.5C47.5882 226.5 49.2 224.888 49.2 222.9C49.2 220.912 47.5882 219.3 45.6 219.3C43.6118 219.3 42 220.912 42 222.9C42 224.888 43.6118 226.5 45.6 226.5Z" fill="#0C7EFF"/>
<path d="M55.8 226.5C57.7882 226.5 59.4 224.888 59.4 222.9C59.4 220.912 57.7882 219.3 55.8 219.3C53.8118 219.3 52.2 220.912 52.2 222.9C52.2 224.888 53.8118 226.5 55.8 226.5Z" fill="#0C7EFF"/>
<path d="M66.3 226.5C68.2882 226.5 69.9 224.888 69.9 222.9C69.9 220.912 68.2882 219.3 66.3 219.3C64.3118 219.3 62.7 220.912 62.7 222.9C62.7 224.888 64.3118 226.5 66.3 226.5Z" fill="#0C7EFF"/>
<path d="M76.8 226.5C78.7882 226.5 80.4 224.888 80.4 222.9C80.4 220.912 78.7882 219.3 76.8 219.3C74.8118 219.3 73.2 220.912 73.2 222.9C73.2 224.888 74.8118 226.5 76.8 226.5Z" fill="#0C7EFF"/>
<path d="M87.3 226.5C89.2882 226.5 90.9 224.888 90.9 222.9C90.9 220.912 89.2882 219.3 87.3 219.3C85.3118 219.3 83.7 220.912 83.7 222.9C83.7 224.888 85.3118 226.5 87.3 226.5Z" fill="#0C7EFF"/>
<path d="M97.8 226.5C99.7882 226.5 101.4 224.888 101.4 222.9C101.4 220.912 99.7882 219.3 97.8 219.3C95.8118 219.3 94.2 220.912 94.2 222.9C94.2 224.888 95.8118 226.5 97.8 226.5Z" fill="#0C7EFF"/>
<path d="M108.3 226.5C110.288 226.5 111.9 224.888 111.9 222.9C111.9 220.912 110.288 219.3 108.3 219.3C106.312 219.3 104.7 220.912 104.7 222.9C104.7 224.888 106.312 226.5 108.3 226.5Z" fill="#0C7EFF"/>
<path d="M118.5 226.5C120.488 226.5 122.1 224.888 122.1 222.9C122.1 220.912 120.488 219.3 118.5 219.3C116.512 219.3 114.9 220.912 114.9 222.9C114.9 224.888 116.512 226.5 118.5 226.5Z" fill="#0C7EFF"/>
<path d="M129 226.5C130.988 226.5 132.6 224.888 132.6 222.9C132.6 220.912 130.988 219.3 129 219.3C127.012 219.3 125.4 220.912 125.4 222.9C125.4 224.888 127.012 226.5 129 226.5Z" fill="#0C7EFF"/>
<path d="M139.5 226.5C141.488 226.5 143.1 224.888 143.1 222.9C143.1 220.912 141.488 219.3 139.5 219.3C137.512 219.3 135.9 220.912 135.9 222.9C135.9 224.888 137.512 226.5 139.5 226.5Z" fill="#0C7EFF"/>
<path d="M150 226.5C151.988 226.5 153.6 224.888 153.6 222.9C153.6 220.912 151.988 219.3 150 219.3C148.012 219.3 146.4 220.912 146.4 222.9C146.4 224.888 148.012 226.5 150 226.5Z" fill="#0C7EFF"/>
<path d="M160.5 226.5C162.488 226.5 164.1 224.888 164.1 222.9C164.1 220.912 162.488 219.3 160.5 219.3C158.512 219.3 156.9 220.912 156.9 222.9C156.9 224.888 158.512 226.5 160.5 226.5Z" fill="#0C7EFF"/>
<path d="M171 226.5C172.988 226.5 174.6 224.888 174.6 222.9C174.6 220.912 172.988 219.3 171 219.3C169.012 219.3 167.4 220.912 167.4 222.9C167.4 224.888 169.012 226.5 171 226.5Z" fill="#0C7EFF"/>
<path d="M181.5 226.5C183.488 226.5 185.1 224.888 185.1 222.9C185.1 220.912 183.488 219.3 181.5 219.3C179.512 219.3 177.9 220.912 177.9 222.9C177.9 224.888 179.512 226.5 181.5 226.5Z" fill="#0C7EFF"/>
<path d="M202.2 226.5C204.188 226.5 205.8 224.888 205.8 222.9C205.8 220.912 204.188 219.3 202.2 219.3C200.212 219.3 198.6 220.912 198.6 222.9C198.6 224.888 200.212 226.5 202.2 226.5Z" fill="#0C7EFF"/>
<path d="M212.7 226.5C214.688 226.5 216.3 224.888 216.3 222.9C216.3 220.912 214.688 219.3 212.7 219.3C210.712 219.3 209.1 220.912 209.1 222.9C209.1 224.888 210.712 226.5 212.7 226.5Z" fill="#0C7EFF"/>
<path d="M223.2 226.5C225.188 226.5 226.8 224.888 226.8 222.9C226.8 220.912 225.188 219.3 223.2 219.3C221.212 219.3 219.6 220.912 219.6 222.9C219.6 224.888 221.212 226.5 223.2 226.5Z" fill="#0C7EFF"/>
<path d="M233.7 226.5C235.688 226.5 237.3 224.888 237.3 222.9C237.3 220.912 235.688 219.3 233.7 219.3C231.712 219.3 230.1 220.912 230.1 222.9C230.1 224.888 231.712 226.5 233.7 226.5Z" fill="#0C7EFF"/>
<path d="M244.2 226.5C246.188 226.5 247.8 224.888 247.8 222.9C247.8 220.912 246.188 219.3 244.2 219.3C242.212 219.3 240.6 220.912 240.6 222.9C240.6 224.888 242.212 226.5 244.2 226.5Z" fill="#0C7EFF"/>
<path d="M254.4 226.5C256.388 226.5 258 224.888 258 222.9C258 220.912 256.388 219.3 254.4 219.3C252.412 219.3 250.8 220.912 250.8 222.9C250.8 224.888 252.412 226.5 254.4 226.5Z" fill="#0C7EFF"/>
<path d="M275.4 226.5C277.388 226.5 279 224.888 279 222.9C279 220.912 277.388 219.3 275.4 219.3C273.412 219.3 271.8 220.912 271.8 222.9C271.8 224.888 273.412 226.5 275.4 226.5Z" fill="#0C7EFF"/>
<path d="M285.9 226.5C287.888 226.5 289.5 224.888 289.5 222.9C289.5 220.912 287.888 219.3 285.9 219.3C283.912 219.3 282.3 220.912 282.3 222.9C282.3 224.888 283.912 226.5 285.9 226.5Z" fill="#0C7EFF"/>
<path d="M296.4 226.5C298.388 226.5 300 224.888 300 222.9C300 220.912 298.388 219.3 296.4 219.3C294.412 219.3 292.8 220.912 292.8 222.9C292.8 224.888 294.412 226.5 296.4 226.5Z" fill="#0C7EFF"/>
<path d="M35.1 237C37.0882 237 38.7 235.388 38.7 233.4C38.7 231.412 37.0882 229.8 35.1 229.8C33.1118 229.8 31.5 231.412 31.5 233.4C31.5 235.388 33.1118 237 35.1 237Z" fill="#0C7EFF"/>
<path d="M45.6 237C47.5882 237 49.2 235.388 49.2 233.4C49.2 231.412 47.5882 229.8 45.6 229.8C43.6118 229.8 42 231.412 42 233.4C42 235.388 43.6118 237 45.6 237Z" fill="#0C7EFF"/>
<path d="M55.8 237C57.7882 237 59.4 235.388 59.4 233.4C59.4 231.412 57.7882 229.8 55.8 229.8C53.8118 229.8 52.2 231.412 52.2 233.4C52.2 235.388 53.8118 237 55.8 237Z" fill="#0C7EFF"/>
<path d="M66.3 237C68.2882 237 69.9 235.388 69.9 233.4C69.9 231.412 68.2882 229.8 66.3 229.8C64.3118 229.8 62.7 231.412 62.7 233.4C62.7 235.388 64.3118 237 66.3 237Z" fill="#0C7EFF"/>
<path d="M76.8 237C78.7882 237 80.4 235.388 80.4 233.4C80.4 231.412 78.7882 229.8 76.8 229.8C74.8118 229.8 73.2 231.412 73.2 233.4C73.2 235.388 74.8118 237 76.8 237Z" fill="#0C7EFF"/>
<path d="M87.3 237C89.2882 237 90.9 235.388 90.9 233.4C90.9 231.412 89.2882 229.8 87.3 229.8C85.3118 229.8 83.7 231.412 83.7 233.4C83.7 235.388 85.3118 237 87.3 237Z" fill="#0C7EFF"/>
<path d="M97.8 237C99.7882 237 101.4 235.388 101.4 233.4C101.4 231.412 99.7882 229.8 97.8 229.8C95.8118 229.8 94.2 231.412 94.2 233.4C94.2 235.388 95.8118 237 97.8 237Z" fill="#0C7EFF"/>
<path d="M108.3 237C110.288 237 111.9 235.388 111.9 233.4C111.9 231.412 110.288 229.8 108.3 229.8C106.312 229.8 104.7 231.412 104.7 233.4C104.7 235.388 106.312 237 108.3 237Z" fill="#0C7EFF"/>
<path d="M118.5 237C120.488 237 122.1 235.388 122.1 233.4C122.1 231.412 120.488 229.8 118.5 229.8C116.512 229.8 114.9 231.412 114.9 233.4C114.9 235.388 116.512 237 118.5 237Z" fill="#0C7EFF"/>
<path d="M129 237C130.988 237 132.6 235.388 132.6 233.4C132.6 231.412 130.988 229.8 129 229.8C127.012 229.8 125.4 231.412 125.4 233.4C125.4 235.388 127.012 237 129 237Z" fill="#0C7EFF"/>
<path d="M139.5 237C141.488 237 143.1 235.388 143.1 233.4C143.1 231.412 141.488 229.8 139.5 229.8C137.512 229.8 135.9 231.412 135.9 233.4C135.9 235.388 137.512 237 139.5 237Z" fill="#0C7EFF"/>
<path d="M150 237C151.988 237 153.6 235.388 153.6 233.4C153.6 231.412 151.988 229.8 150 229.8C148.012 229.8 146.4 231.412 146.4 233.4C146.4 235.388 148.012 237 150 237Z" fill="#0C7EFF"/>
<path d="M160.5 237C162.488 237 164.1 235.388 164.1 233.4C164.1 231.412 162.488 229.8 160.5 229.8C158.512 229.8 156.9 231.412 156.9 233.4C156.9 235.388 158.512 237 160.5 237Z" fill="#0C7EFF"/>
<path d="M171 237C172.988 237 174.6 235.388 174.6 233.4C174.6 231.412 172.988 229.8 171 229.8C169.012 229.8 167.4 231.412 167.4 233.4C167.4 235.388 169.012 237 171 237Z" fill="#0C7EFF"/>
<path d="M181.5 237C183.488 237 185.1 235.388 185.1 233.4C185.1 231.412 183.488 229.8 181.5 229.8C179.512 229.8 177.9 231.412 177.9 233.4C177.9 235.388 179.512 237 181.5 237Z" fill="#0C7EFF"/>
<path d="M191.7 237C193.688 237 195.3 235.388 195.3 233.4C195.3 231.412 193.688 229.8 191.7 229.8C189.712 229.8 188.1 231.412 188.1 233.4C188.1 235.388 189.712 237 191.7 237Z" fill="#0C7EFF"/>
<path d="M202.2 237C204.188 237 205.8 235.388 205.8 233.4C205.8 231.412 204.188 229.8 202.2 229.8C200.212 229.8 198.6 231.412 198.6 233.4C198.6 235.388 200.212 237 202.2 237Z" fill="#0C7EFF"/>
<path d="M212.7 237C214.688 237 216.3 235.388 216.3 233.4C216.3 231.412 214.688 229.8 212.7 229.8C210.712 229.8 209.1 231.412 209.1 233.4C209.1 235.388 210.712 237 212.7 237Z" fill="#0C7EFF"/>
<path d="M223.2 237C225.188 237 226.8 235.388 226.8 233.4C226.8 231.412 225.188 229.8 223.2 229.8C221.212 229.8 219.6 231.412 219.6 233.4C219.6 235.388 221.212 237 223.2 237Z" fill="#0C7EFF"/>
<path d="M233.7 237C235.688 237 237.3 235.388 237.3 233.4C237.3 231.412 235.688 229.8 233.7 229.8C231.712 229.8 230.1 231.412 230.1 233.4C230.1 235.388 231.712 237 233.7 237Z" fill="#0C7EFF"/>
<path d="M244.2 237C246.188 237 247.8 235.388 247.8 233.4C247.8 231.412 246.188 229.8 244.2 229.8C242.212 229.8 240.6 231.412 240.6 233.4C240.6 235.388 242.212 237 244.2 237Z" fill="#0C7EFF"/>
<path d="M254.4 237C256.388 237 258 235.388 258 233.4C258 231.412 256.388 229.8 254.4 229.8C252.412 229.8 250.8 231.412 250.8 233.4C250.8 235.388 252.412 237 254.4 237Z" fill="#0C7EFF"/>
<path d="M45.6 247.5C47.5882 247.5 49.2 245.888 49.2 243.9C49.2 241.912 47.5882 240.3 45.6 240.3C43.6118 240.3 42 241.912 42 243.9C42 245.888 43.6118 247.5 45.6 247.5Z" fill="#0C7EFF"/>
<path d="M55.8 247.5C57.7882 247.5 59.4 245.888 59.4 243.9C59.4 241.912 57.7882 240.3 55.8 240.3C53.8118 240.3 52.2 241.912 52.2 243.9C52.2 245.888 53.8118 247.5 55.8 247.5Z" fill="#0C7EFF"/>
<path d="M66.3 247.5C68.2882 247.5 69.9 245.888 69.9 243.9C69.9 241.912 68.2882 240.3 66.3 240.3C64.3118 240.3 62.7 241.912 62.7 243.9C62.7 245.888 64.3118 247.5 66.3 247.5Z" fill="#0C7EFF"/>
<path d="M76.8 247.5C78.7882 247.5 80.4 245.888 80.4 243.9C80.4 241.912 78.7882 240.3 76.8 240.3C74.8118 240.3 73.2 241.912 73.2 243.9C73.2 245.888 74.8118 247.5 76.8 247.5Z" fill="#0C7EFF"/>
<path d="M87.3 247.5C89.2882 247.5 90.9 245.888 90.9 243.9C90.9 241.912 89.2882 240.3 87.3 240.3C85.3118 240.3 83.7 241.912 83.7 243.9C83.7 245.888 85.3118 247.5 87.3 247.5Z" fill="#0C7EFF"/>
<path d="M97.8 247.5C99.7882 247.5 101.4 245.888 101.4 243.9C101.4 241.912 99.7882 240.3 97.8 240.3C95.8118 240.3 94.2 241.912 94.2 243.9C94.2 245.888 95.8118 247.5 97.8 247.5Z" fill="#0C7EFF"/>
<path d="M108.3 247.5C110.288 247.5 111.9 245.888 111.9 243.9C111.9 241.912 110.288 240.3 108.3 240.3C106.312 240.3 104.7 241.912 104.7 243.9C104.7 245.888 106.312 247.5 108.3 247.5Z" fill="#0C7EFF"/>
<path d="M118.5 247.5C120.488 247.5 122.1 245.888 122.1 243.9C122.1 241.912 120.488 240.3 118.5 240.3C116.512 240.3 114.9 241.912 114.9 243.9C114.9 245.888 116.512 247.5 118.5 247.5Z" fill="#0C7EFF"/>
<path d="M129 247.5C130.988 247.5 132.6 245.888 132.6 243.9C132.6 241.912 130.988 240.3 129 240.3C127.012 240.3 125.4 241.912 125.4 243.9C125.4 245.888 127.012 247.5 129 247.5Z" fill="#0C7EFF"/>
<path d="M139.5 247.5C141.488 247.5 143.1 245.888 143.1 243.9C143.1 241.912 141.488 240.3 139.5 240.3C137.512 240.3 135.9 241.912 135.9 243.9C135.9 245.888 137.512 247.5 139.5 247.5Z" fill="#0C7EFF"/>
<path d="M150 247.5C151.988 247.5 153.6 245.888 153.6 243.9C153.6 241.912 151.988 240.3 150 240.3C148.012 240.3 146.4 241.912 146.4 243.9C146.4 245.888 148.012 247.5 150 247.5Z" fill="#0C7EFF"/>
<path d="M150 258C151.988 258 153.6 256.388 153.6 254.4C153.6 252.412 151.988 250.8 150 250.8C148.012 250.8 146.4 252.412 146.4 254.4C146.4 256.388 148.012 258 150 258Z" fill="#0C7EFF"/>
<path d="M160.5 247.5C162.488 247.5 164.1 245.888 164.1 243.9C164.1 241.912 162.488 240.3 160.5 240.3C158.512 240.3 156.9 241.912 156.9 243.9C156.9 245.888 158.512 247.5 160.5 247.5Z" fill="#0C7EFF"/>
<path d="M171 247.5C172.988 247.5 174.6 245.888 174.6 243.9C174.6 241.912 172.988 240.3 171 240.3C169.012 240.3 167.4 241.912 167.4 243.9C167.4 245.888 169.012 247.5 171 247.5Z" fill="#0C7EFF"/>
<path d="M181.5 247.5C183.488 247.5 185.1 245.888 185.1 243.9C185.1 241.912 183.488 240.3 181.5 240.3C179.512 240.3 177.9 241.912 177.9 243.9C177.9 245.888 179.512 247.5 181.5 247.5Z" fill="#0C7EFF"/>
<path d="M191.7 247.5C193.688 247.5 195.3 245.888 195.3 243.9C195.3 241.912 193.688 240.3 191.7 240.3C189.712 240.3 188.1 241.912 188.1 243.9C188.1 245.888 189.712 247.5 191.7 247.5Z" fill="#0C7EFF"/>
<path d="M202.2 247.5C204.188 247.5 205.8 245.888 205.8 243.9C205.8 241.912 204.188 240.3 202.2 240.3C200.212 240.3 198.6 241.912 198.6 243.9C198.6 245.888 200.212 247.5 202.2 247.5Z" fill="#0C7EFF"/>
<path d="M212.7 247.5C214.688 247.5 216.3 245.888 216.3 243.9C216.3 241.912 214.688 240.3 212.7 240.3C210.712 240.3 209.1 241.912 209.1 243.9C209.1 245.888 210.712 247.5 212.7 247.5Z" fill="#0C7EFF"/>
<path d="M223.2 247.5C225.188 247.5 226.8 245.888 226.8 243.9C226.8 241.912 225.188 240.3 223.2 240.3C221.212 240.3 219.6 241.912 219.6 243.9C219.6 245.888 221.212 247.5 223.2 247.5Z" fill="#0C7EFF"/>
<path d="M233.7 247.5C235.688 247.5 237.3 245.888 237.3 243.9C237.3 241.912 235.688 240.3 233.7 240.3C231.712 240.3 230.1 241.912 230.1 243.9C230.1 245.888 231.712 247.5 233.7 247.5Z" fill="#0C7EFF"/>
<path d="M244.2 247.5C246.188 247.5 247.8 245.888 247.8 243.9C247.8 241.912 246.188 240.3 244.2 240.3C242.212 240.3 240.6 241.912 240.6 243.9C240.6 245.888 242.212 247.5 244.2 247.5Z" fill="#0C7EFF"/>
<path d="M254.4 247.5C256.388 247.5 258 245.888 258 243.9C258 241.912 256.388 240.3 254.4 240.3C252.412 240.3 250.8 241.912 250.8 243.9C250.8 245.888 252.412 247.5 254.4 247.5Z" fill="#0C7EFF"/>
<path d="M264.9 247.5C266.888 247.5 268.5 245.888 268.5 243.9C268.5 241.912 266.888 240.3 264.9 240.3C262.912 240.3 261.3 241.912 261.3 243.9C261.3 245.888 262.912 247.5 264.9 247.5Z" fill="#0C7EFF"/>
<path d="M275.4 247.5C277.388 247.5 279 245.888 279 243.9C279 241.912 277.388 240.3 275.4 240.3C273.412 240.3 271.8 241.912 271.8 243.9C271.8 245.888 273.412 247.5 275.4 247.5Z" fill="#0C7EFF"/>
<path d="M160.5 258C162.488 258 164.1 256.388 164.1 254.4C164.1 252.412 162.488 250.8 160.5 250.8C158.512 250.8 156.9 252.412 156.9 254.4C156.9 256.388 158.512 258 160.5 258Z" fill="#0C7EFF"/>
<path d="M181.5 258C183.488 258 185.1 256.388 185.1 254.4C185.1 252.412 183.488 250.8 181.5 250.8C179.512 250.8 177.9 252.412 177.9 254.4C177.9 256.388 179.512 258 181.5 258Z" fill="#0C7EFF"/>
<path d="M191.7 258C193.688 258 195.3 256.388 195.3 254.4C195.3 252.412 193.688 250.8 191.7 250.8C189.712 250.8 188.1 252.412 188.1 254.4C188.1 256.388 189.712 258 191.7 258Z" fill="#0C7EFF"/>
<path d="M202.2 258C204.188 258 205.8 256.388 205.8 254.4C205.8 252.412 204.188 250.8 202.2 250.8C200.212 250.8 198.6 252.412 198.6 254.4C198.6 256.388 200.212 258 202.2 258Z" fill="#0C7EFF"/>
<path d="M212.7 258C214.688 258 216.3 256.388 216.3 254.4C216.3 252.412 214.688 250.8 212.7 250.8C210.712 250.8 209.1 252.412 209.1 254.4C209.1 256.388 210.712 258 212.7 258Z" fill="#0C7EFF"/>
<path d="M223.2 258C225.188 258 226.8 256.388 226.8 254.4C226.8 252.412 225.188 250.8 223.2 250.8C221.212 250.8 219.6 252.412 219.6 254.4C219.6 256.388 221.212 258 223.2 258Z" fill="#0C7EFF"/>
<path d="M233.7 258C235.688 258 237.3 256.388 237.3 254.4C237.3 252.412 235.688 250.8 233.7 250.8C231.712 250.8 230.1 252.412 230.1 254.4C230.1 256.388 231.712 258 233.7 258Z" fill="#0C7EFF"/>
<path d="M254.4 258C256.388 258 258 256.388 258 254.4C258 252.412 256.388 250.8 254.4 250.8C252.412 250.8 250.8 252.412 250.8 254.4C250.8 256.388 252.412 258 254.4 258Z" fill="#0C7EFF"/>
<path d="M202.2 268.5C204.188 268.5 205.8 266.888 205.8 264.9C205.8 262.912 204.188 261.3 202.2 261.3C200.212 261.3 198.6 262.912 198.6 264.9C198.6 266.888 200.212 268.5 202.2 268.5Z" fill="#0C7EFF"/>
<path d="M212.7 268.5C214.688 268.5 216.3 266.888 216.3 264.9C216.3 262.912 214.688 261.3 212.7 261.3C210.712 261.3 209.1 262.912 209.1 264.9C209.1 266.888 210.712 268.5 212.7 268.5Z" fill="#0C7EFF"/>
<path d="M191.7 278.7C193.688 278.7 195.3 277.088 195.3 275.1C195.3 273.112 193.688 271.5 191.7 271.5C189.712 271.5 188.1 273.112 188.1 275.1C188.1 277.088 189.712 278.7 191.7 278.7Z" fill="#0C7EFF"/>
<path d="M202.2 278.7C204.188 278.7 205.8 277.088 205.8 275.1C205.8 273.112 204.188 271.5 202.2 271.5C200.212 271.5 198.6 273.112 198.6 275.1C198.6 277.088 200.212 278.7 202.2 278.7Z" fill="#0C7EFF"/>
</g>
<circle cx="264.5" cy="192.5" r="4.5" fill="#00C1FF"/>
<circle cx="222.5" cy="223.5" r="4.5" fill="#00C1FF"/>
<circle cx="201.5" cy="254.5" r="4.5" fill="#00C1FF"/>
<circle cx="98" cy="192" r="4" fill="#00C1FF"/>
<circle cx="87" cy="181" r="4" fill="#00C1FF"/>
<circle cx="148.5" cy="129.5" r="4.5" fill="#00C1FF"/>
<circle cx="139.5" cy="35.5" r="4.5" fill="#00C1FF"/>
<circle cx="13.5" cy="159.5" r="4.5" fill="#00C1FF"/>
<circle cx="24.5" cy="149.5" r="4.5" fill="#00C1FF"/>
<defs>
<clipPath id="clip0">
<rect width="300" height="278.7" fill="white"/>
</clipPath>
</defs>
</svg>
