<svg id="Capa_1" enable-background="new 0 0 512 512" height="512" viewBox="0 0 512 512" width="512" xmlns="http://www.w3.org/2000/svg"><g> 
<path d="m256 0c-140.96 0-256 115.049-256 256 0 140.96 115.049 256 256 256 140.96 0 256-115.049 256-256 0-140.96-115.049-256-256-256zm0 376c-66.168 0-120-53.832-120-120s53.832-120 120-120 120 53.832 120 120-53.832 120-120 120zm139.638-174.792 56.82-56.82c18.791 32.947 29.542 71.046 29.542 111.612s-10.751 78.665-29.542 111.612l-56.82-56.82c6.686-16.981 10.362-35.465 10.362-54.792s-3.676-37.811-10.362-54.792zm39.89-82.316-54.434 54.434c-11.153-16.819-25.601-31.267-42.42-42.42l54.434-54.434c15.943 12.204 30.216 26.478 42.42 42.42zm-67.916-59.35-56.821 56.82c-16.98-6.686-35.464-10.362-54.791-10.362s-37.811 3.676-54.792 10.362l-56.821-56.82c32.947-18.791 71.047-29.542 111.613-29.542s78.666 10.751 111.612 29.542zm-248.721 16.93 54.434 54.434c-16.819 11.153-31.267 25.601-42.42 42.42l-54.434-54.434c12.205-15.942 26.478-30.216 42.42-42.42zm-59.349 67.916 56.82 56.82c-6.686 16.981-10.362 35.465-10.362 54.792s3.676 37.811 10.362 54.792l-56.82 56.82c-18.791-32.947-29.542-71.046-29.542-111.612s10.751-78.665 29.542-111.612zm16.93 248.72 54.434-54.434c11.153 16.819 25.601 31.267 42.42 42.42l-54.434 54.434c-15.943-12.204-30.216-26.478-42.42-42.42zm67.916 59.35 56.821-56.82c16.98 6.686 35.464 10.362 54.791 10.362s37.811-3.676 54.792-10.362l56.821 56.82c-32.947 18.791-71.047 29.542-111.613 29.542s-78.666-10.751-111.612-29.542zm248.721-16.93-54.434-54.434c16.819-11.153 31.267-25.601 42.42-42.42l54.434 54.434c-12.205 15.942-26.478 30.216-42.42 42.42z"/></g></svg>