<svg width="20" height="17" viewBox="0 0 20 17" fill="none" xmlns="http://www.w3.org/2000/svg">
<path d="M19.0853 12.8801C18.8672 13.6653 18.2246 14.2838 17.4088 14.4936C15.93 14.875 10.0001 14.875 10.0001 14.875C10.0001 14.875 4.07019 14.875 2.59133 14.4936C1.77547 14.2837 1.1329 13.6653 0.914805 12.8801C0.518555 11.4567 0.518555 8.48712 0.518555 8.48712C0.518555 8.48712 0.518555 5.5175 0.914805 4.09418C1.1329 3.30892 1.77547 2.71625 2.59133 2.50637C4.07019 2.125 10.0001 2.125 10.0001 2.125C10.0001 2.125 15.9299 2.125 17.4088 2.50637C18.2246 2.71625 18.8672 3.30892 19.0853 4.09418C19.4816 5.5175 19.4816 8.48712 19.4816 8.48712C19.4816 8.48712 19.4816 11.4567 19.0853 12.8801ZM8.06064 5.79092V11.1833L13.0169 8.48705L8.06064 5.79092Z" fill="#0C7EFF"/>
</svg>
