<svg width="20" height="17" viewBox="0 0 20 17" fill="none" xmlns="http://www.w3.org/2000/svg">
<path d="M18.6035 12.7463L18.6036 12.746C18.7854 12.093 18.8831 11.045 18.9327 10.123C18.9571 9.6697 18.9694 9.25974 18.9755 8.96307C18.9785 8.81484 18.98 8.69519 18.9808 8.61289L18.9815 8.51863L18.9815 8.49461L18.9816 8.48875L18.9816 8.4874V8.48715V8.48684L18.9816 8.48549L18.9815 8.47962L18.9815 8.45561L18.9808 8.36134C18.98 8.27904 18.9785 8.15939 18.9755 8.01117C18.9694 7.7145 18.9571 7.30454 18.9327 6.85126C18.8831 5.92925 18.7854 4.88121 18.6036 4.22828L18.6035 4.22798C18.4376 3.63047 17.943 3.16009 17.2842 2.99061L17.2839 2.99053C16.9645 2.90815 16.3599 2.83856 15.5923 2.78466C14.8382 2.73172 13.966 2.69621 13.1356 2.67247C12.3058 2.64874 11.5216 2.63687 10.9446 2.63093C10.6561 2.62796 10.4197 2.62648 10.2555 2.62574L10.0659 2.62509L10.0166 2.62501L10.0041 2.625L10.001 2.625H10.0003H10.0001L10.0001 2.125L10 2.625H9.99984H9.9991L9.996 2.625L9.98351 2.62501L9.93416 2.62509L9.74462 2.62574C9.58042 2.62648 9.34398 2.62796 9.05555 2.63093C8.47849 2.63687 7.69426 2.64874 6.86455 2.67247C6.03408 2.69621 5.16192 2.73172 4.40786 2.78466C3.64018 2.83856 3.03563 2.90815 2.71619 2.99053L2.7159 2.99061C2.05706 3.16009 1.56252 3.63047 1.39657 4.22798L1.39649 4.22828C1.21471 4.88121 1.11699 5.92925 1.06736 6.85126C1.04297 7.30454 1.03075 7.7145 1.02464 8.01117C1.02159 8.15939 1.02007 8.27904 1.01931 8.36134L1.01865 8.45561L1.01857 8.47962L1.01856 8.48549L1.01855 8.48684L1.01855 8.48709V8.48711V8.48712V8.48715L1.01855 8.4874L1.01856 8.48875L1.01857 8.49461L1.01865 8.51863L1.01931 8.61289C1.02007 8.69519 1.02159 8.81484 1.02464 8.96307C1.03075 9.25974 1.04297 9.6697 1.06736 10.123C1.11699 11.045 1.21471 12.093 1.39649 12.746L1.39657 12.7463C1.56485 13.3522 2.06598 13.8422 2.71592 14.0094L2.71619 14.0095C3.03563 14.0918 3.64018 14.1614 4.40786 14.2153C5.16192 14.2683 6.03408 14.3038 6.86455 14.3275C7.69426 14.3513 8.47849 14.3631 9.05555 14.3691C9.34398 14.372 9.58042 14.3735 9.74462 14.3743L9.93416 14.3749L9.98351 14.375L9.996 14.375L9.9991 14.375L9.99984 14.375H10L10.0001 14.875L10.0001 14.375H10.0003L10.001 14.375L10.0041 14.375L10.0166 14.375L10.0659 14.3749L10.2555 14.3743C10.4197 14.3735 10.6561 14.372 10.9446 14.3691C11.5216 14.3631 12.3059 14.3513 13.1356 14.3275C13.966 14.3038 14.8382 14.2683 15.5923 14.2153C16.3599 14.1614 16.9645 14.0918 17.2839 14.0095L17.2842 14.0094C17.9341 13.8422 18.4352 13.3522 18.6035 12.7463ZM7.56064 5.79092V4.94974L8.29957 5.35171L13.2558 8.04783L14.0632 8.48704L13.2558 8.92626L8.29958 11.6225L7.56064 12.0245V11.1833V5.79092Z" stroke="#014C7F"/>
</svg>
